<svg xmlns="http://www.w3.org/2000/svg" width="43" height="71" viewBox="0 0 43 71" fill="none">
  <path d="M23.774 69.3392C33.6895 69.3392 41.7276 68.6849 41.7276 67.8779C41.7276 67.0709 33.6895 66.4166 23.774 66.4166C13.8584 66.4166 5.82031 67.0709 5.82031 67.8779C5.82031 68.6849 13.8584 69.3392 23.774 69.3392Z" fill="#1D1D1B"/>
  <path d="M37.1337 62.9802C36.4462 61.8562 36.2274 61.2139 36.0712 60.6679C35.9306 60.1059 35.8212 59.8008 35.8212 59.8008C35.8212 59.8008 34.9149 60.5876 34.9774 61.1818C35.0555 61.7759 33.9618 61.8562 33.9618 61.8562L30.7273 61.1818L28.2585 49.7325C28.2585 49.7325 28.1178 45.445 27.6022 44.1122L24.8677 41.4306L20.4301 40.6277C19.852 41.4145 18.18 43.5823 17.1488 44.4976C15.8675 45.6217 9.75791 46.6976 8.02348 47.1472C6.28906 47.5968 6.44531 47.9661 6.44531 47.9661C6.44531 47.9661 6.47657 48.3836 6.63282 48.8333C6.78907 49.2829 6.36719 49.4756 6.36719 49.4756L7.13283 51.9806L6.41406 52.5266L10.8673 64.4736C10.8673 64.4736 8.77351 65.8225 8.83601 65.9349C8.89851 66.0473 9.78916 65.967 10.1173 66.529C10.1173 66.529 12.9924 66.5611 14.8049 65.8546C14.8049 65.8546 15.3362 62.6751 14.9612 61.4708C14.6018 60.2665 13.2424 58.1468 13.2424 58.1468L10.7111 49.4756L19.3519 50.1179C19.3519 50.1179 22.102 54.0842 23.8208 59.8811C25.5396 65.678 27.4303 65.2765 29.4616 65.678C31.4929 66.0955 37.1493 65.8706 37.1493 65.8706C37.1493 65.8706 37.8369 64.1043 37.1337 62.9802Z" fill="#E4DCD6"/>
  <path d="M0.179688 43.3895C0.179688 43.3895 0.992212 45.6537 1.11722 46.6975C1.24222 47.7412 1.60161 49.0098 2.30475 50.2623C2.99227 51.5148 9.28933 62.7393 9.28933 62.7393C9.28933 62.7393 10.0081 65.5012 10.9456 65.5815L11.4613 64.875L7.39865 52.5265L4.27356 48.7207L1.64848 43.1808L0.179688 43.3895Z" fill="#EFBF46"/>
  <path d="M2.69531 47.147C2.69531 47.147 2.71094 48.5601 3.75784 50.9687C4.80475 53.3774 9.27363 62.7713 9.27363 62.7713" stroke="#1D1D1B" stroke-width="0.5" stroke-miterlimit="10" stroke-linecap="round" stroke-linejoin="round"/>
  <path d="M6.41529 43.4218C6.41529 43.4218 5.75902 41.4145 3.94647 40.6438C2.11829 39.873 0.852625 41.7036 1.18076 42.8276C1.50889 43.9517 2.30579 44.0962 2.96206 45.5896C3.61833 47.083 4.55586 50.1179 5.72777 50.6478L6.41529 43.4218Z" fill="#1D1D1B"/>
  <path d="M10.3822 44.4655C11.7728 44.048 15.7729 43.0845 16.3823 42.6349C16.8198 42.3137 17.7886 40.9809 18.3043 40.2583L17.1324 40.0496C17.1324 40.0496 7.24144 43.0524 6.41329 43.4378C5.56951 43.8071 4.38198 44.5939 4.66324 46.5048C4.72574 46.9063 4.80387 47.3238 4.89762 47.7252C4.91325 47.2756 4.97575 46.826 5.132 46.5851C5.49139 46.007 8.99149 44.8669 10.3822 44.4655Z" fill="#E4DCD6"/>
  <path d="M14.4142 0.0494454C13.9767 -0.0147861 13.1642 -0.0790175 12.461 0.290313C10.1953 6.95433 9.30469 19.0298 9.13281 21.5991C9.64845 21.7436 10.3672 21.8881 11.1641 21.8721C11.2735 20.0575 12.1642 6.97038 14.5861 0.065503C14.5236 0.065503 14.4767 0.0494454 14.4142 0.0494454Z" fill="#EDEDF1"/>
  <path d="M11.1954 2.07277C10.6954 4.32087 8.88283 13.522 8.6172 16.7015C8.36719 19.8809 8.33594 21.3422 8.33594 21.3422C8.33594 21.3422 8.63282 21.4707 9.11721 21.5991C9.28909 19.0138 10.1797 6.9383 12.4454 0.290344C11.9142 0.563328 11.4142 1.09324 11.1954 2.07277Z" fill="#649DC5"/>
  <path d="M14.5704 0.081665C12.1485 6.97049 11.2734 20.0737 11.1484 21.8882C11.6953 21.8882 12.2891 21.824 12.8672 21.6313C12.8672 21.6313 16.0236 2.49034 16.0861 1.49476C16.1642 0.531285 15.3048 0.210128 14.5704 0.081665Z" fill="#E4DCD6"/>
  <path d="M14.6329 3.00403C14.586 3.5982 14.5391 4.17632 14.4922 4.7705" stroke="#1D1D1B" stroke-width="0.5" stroke-miterlimit="10" stroke-linecap="round" stroke-linejoin="round"/>
  <path d="M14.9297 3.98364C14.8672 4.52964 14.8047 5.07564 14.7422 5.6377" stroke="#1D1D1B" stroke-width="0.5" stroke-miterlimit="10" stroke-linecap="round" stroke-linejoin="round"/>
  <path d="M9.53906 14.2607C9.61721 14.9352 9.67973 15.6097 9.75788 16.2842" stroke="#1D1D1B" stroke-width="0.5" stroke-miterlimit="10" stroke-linecap="round" stroke-linejoin="round"/>
  <path d="M9.39844 15.7219C9.55474 16.4446 9.64851 17.1833 9.6954 17.922" stroke="#1D1D1B" stroke-width="0.5" stroke-miterlimit="10" stroke-linecap="round" stroke-linejoin="round"/>
  <path d="M18.8831 34.7986C18.8831 34.7986 13.8829 36.1635 13.086 35.8745C12.3047 35.6015 10.3672 28.4718 10.3672 28.4718L12.5079 27.3478C12.5079 27.3478 15.1017 32.8396 15.6642 33.2089C16.2267 33.5782 19.2112 33.0483 19.2112 33.0483L18.8831 34.7986Z" fill="#AF7158"/>
  <path d="M25.9298 22.8517L26.7582 21.6152L25.5234 21.3422L25.9298 22.8517Z" fill="#1D1D1B" stroke="#1D1D1B" stroke-width="0.5" stroke-miterlimit="10" stroke-linecap="round" stroke-linejoin="round"/>
  <path d="M19.9141 18.4517C19.9141 18.4517 19.7422 22.4823 20.8672 22.8998C20.8672 22.8998 21.2891 23.0925 21.8516 23.0443L22.0704 24.1683L26.008 23.1567L25.6017 21.6151C25.6017 21.6151 26.9924 18.7408 26.508 18.3233C26.0236 17.9218 24.9767 16.8138 24.508 16.8299C24.0392 16.862 19.8984 17.9058 19.8984 17.9058L19.9141 18.4517Z" fill="#D19478"/>
  <path d="M21.8516 23.0443L22.805 22.8516L21.961 23.5742L21.8516 23.0443Z" fill="#1D1D1B" stroke="#1D1D1B" stroke-width="0.5" stroke-miterlimit="10" stroke-linecap="round" stroke-linejoin="round"/>
  <path d="M21.6329 18.8531L21.3516 20.5233H21.9768" stroke="#1D1D1B" stroke-width="0.5" stroke-miterlimit="10" stroke-linecap="round" stroke-linejoin="round"/>
  <path d="M22.1016 21.1656L23.5704 20.459C23.5704 20.459 23.336 21.7919 22.1016 21.1656Z" fill="white"/>
  <path d="M21.1485 19.3029C21.1485 19.3993 21.086 19.4635 20.9922 19.4635C20.8985 19.4635 20.8359 19.3993 20.8359 19.3029C20.8359 19.2066 20.8985 19.1423 20.9922 19.1423C21.086 19.1423 21.1485 19.2226 21.1485 19.3029Z" fill="#1D1D1B"/>
  <path d="M23.1485 19.2065C23.1485 19.3028 23.086 19.3671 22.9922 19.3671C22.8985 19.3671 22.8359 19.3028 22.8359 19.2065C22.8359 19.1101 22.8985 19.0459 22.9922 19.0459C23.0704 19.0459 23.1485 19.1262 23.1485 19.2065Z" fill="#1D1D1B"/>
  <path d="M21.6029 18.9496C21.5404 19.046 21.2591 18.8212 20.9154 18.8212C20.5872 18.8212 20.3059 19.046 20.2278 18.9496C20.1497 18.8533 20.4309 18.3555 20.9154 18.3555C21.3998 18.3555 21.681 18.8533 21.6029 18.9496Z" fill="#1D1D1B"/>
  <path d="M23.8998 18.9496C23.8373 19.046 23.556 18.8212 23.2122 18.8212C22.8684 18.8212 22.6028 19.046 22.5247 18.9496C22.4621 18.8533 22.7278 18.3555 23.2122 18.3555C23.7123 18.3555 23.9779 18.8533 23.8998 18.9496Z" fill="#1D1D1B"/>
  <path d="M19.5234 17.1029C19.5234 17.1029 19.6016 16.8459 20.0391 16.5569C20.0391 16.5569 20.3828 14.5336 22.1798 14.1482C23.9767 13.7628 25.5861 14.1 26.4299 14.7102C27.2737 15.3204 28.3362 16.8459 28.4456 18.3554C28.555 19.8648 27.9768 21.2137 27.6799 21.583C27.383 21.9523 24.8986 19.1101 24.8986 19.1101C24.8986 19.1101 24.6798 18.9495 25.8205 18.3875L24.9455 17.7933L20.086 17.1671L19.5234 17.1029Z" fill="#414550"/>
  <path d="M19.1785 18.9977C18.7722 19.4955 17.8972 18.0985 18.2566 17.6168C18.616 17.135 21.1004 16.7175 22.3505 16.862C23.6005 17.0066 25.6787 17.5686 26.0068 17.9219C26.335 18.2751 26.2725 18.4999 25.8506 18.3875C25.4131 18.2751 23.288 17.6007 22.5224 17.7452C21.7411 17.8737 19.866 18.1627 19.1785 18.9977Z" fill="#649DC5"/>
  <path d="M24.9141 19.1101L25.6016 21.6153C25.6016 21.6153 26.5236 22.0007 27.0549 22.0649C27.5706 22.1131 27.9768 21.6956 27.5393 20.9408C27.1018 20.186 24.9141 19.1101 24.9141 19.1101Z" fill="#649DC5"/>
  <path d="M19.0234 18.6605C19.0234 18.6605 19.6016 21.4548 19.5235 23.5745C19.5235 23.5745 19.9454 24.249 22.0706 23.9278" stroke="#1D1D1B" stroke-width="0.5" stroke-miterlimit="10" stroke-linecap="round" stroke-linejoin="round"/>
  <path d="M19.5235 23.5743C19.5235 23.5743 19.461 22.7072 25.8674 22.675" stroke="#1D1D1B" stroke-width="0.5" stroke-miterlimit="10" stroke-linecap="round" stroke-linejoin="round"/>
  <path d="M25.6029 21.6152C25.6029 21.6152 24.5869 21.31 24.5713 20.9407C24.54 20.5713 25.259 20.3304 25.259 20.3304" stroke="#1D1D1B" stroke-width="0.5" stroke-miterlimit="10" stroke-linecap="round" stroke-linejoin="round"/>
  <path d="M24.6477 21.1173C24.6477 21.1173 22.9133 20.6998 21.1788 20.764C19.4444 20.8283 18.0381 21.31 18.2569 22.3538C18.3819 22.98 19.4913 23.0121 19.5225 23.0282" stroke="#1D1D1B" stroke-width="0.5" stroke-miterlimit="10" stroke-linecap="round" stroke-linejoin="round"/>
  <path d="M24.9133 19.1101C24.9133 19.1101 22.6633 18.2911 20.9288 18.3553C19.1944 18.4196 17.7881 18.9013 18.0069 19.9451C18.1319 20.5713 19.3507 20.6034 19.3663 20.6195" stroke="#1D1D1B" stroke-width="0.5" stroke-miterlimit="10" stroke-linecap="round" stroke-linejoin="round"/>
  <path d="M26.586 16.8459L26.3203 17.9219C26.4922 17.9861 26.6642 18.0664 26.8361 18.1628L27.0393 17.0708C26.7892 16.8941 26.586 16.8459 26.586 16.8459Z" fill="white"/>
  <path d="M28.227 18.1788C27.8675 17.6007 27.3986 17.2474 27.0547 17.0547L26.8516 18.1467C27.5705 18.5321 28.227 19.0942 28.227 19.0942V18.1788Z" fill="#649DC5"/>
  <path d="M20.8824 15.465C20.8824 15.465 20.9918 16.557 21.7262 16.2198C22.4606 15.8826 23.2888 14.8708 23.2888 14.8708C23.2888 14.8708 21.9762 15.6898 21.5699 15.5774C21.1637 15.465 20.8199 15.192 20.8824 15.465Z" fill="white"/>
  <path d="M26.0236 17.9222C26.0236 17.9222 26.68 15.5294 25.5703 14.2607" stroke="#1D1D1B" stroke-width="0.5" stroke-miterlimit="10" stroke-linecap="round" stroke-linejoin="round"/>
  <path d="M20.1172 16.7013C20.1641 16.5568 20.2266 16.4283 20.2735 16.2838" stroke="#1D1D1B" stroke-width="0.5" stroke-miterlimit="10" stroke-linecap="round" stroke-linejoin="round"/>
  <path d="M20.3984 16.589C20.4766 16.4765 20.5391 16.3641 20.5547 16.2196" stroke="#1D1D1B" stroke-width="0.5" stroke-miterlimit="10" stroke-linecap="round" stroke-linejoin="round"/>
  <path d="M28.0704 19.6721C28.086 19.8809 28.0235 20.0897 27.9141 20.2663" stroke="#1D1D1B" stroke-width="0.5" stroke-miterlimit="10" stroke-linecap="round" stroke-linejoin="round"/>
  <path d="M27.7422 19.7845C27.7578 19.897 27.7266 20.0094 27.6641 20.0897" stroke="#1D1D1B" stroke-width="0.5" stroke-miterlimit="10" stroke-linecap="round" stroke-linejoin="round"/>
  <path d="M26.2111 18.2752C26.2111 18.2752 26.2268 17.9861 25.8361 17.7934C25.4455 17.6168 23.0079 16.7657 21.8516 16.846C20.6953 16.9103 19.9453 17.0708 19.5234 17.103" stroke="#1D1D1B" stroke-width="0.5" stroke-miterlimit="10" stroke-linecap="round" stroke-linejoin="round"/>
  <path d="M28.1508 32.149C29.0571 31.4907 29.6665 30.5593 29.9321 30.0936C29.9165 29.4031 29.854 28.6805 29.7446 28.0061C28.8696 27.685 28.4008 29.5155 28.4008 29.5155H27.3852C27.3852 29.5155 27.4164 28.1988 28.1821 27.2674C28.6977 26.6412 29.1977 26.6572 29.479 26.7375C29.0571 24.923 28.5258 23.3012 27.1352 22.7873C25.5726 22.1932 23.4163 22.7391 22.3225 23.5099C21.2287 24.2646 19.7287 28.1185 19.7287 28.1185C19.885 28.3112 20.1662 28.3754 20.1662 28.3754L18.963 34.3008C18.963 34.3008 18.7755 35.4088 18.5568 36.1153C18.338 36.8219 17.3849 39.0218 17.3849 39.0218C16.8536 39.1824 16.7911 39.905 17.1192 40.0495C17.4474 40.194 18.6193 40.4991 21.7131 41.2538C24.7913 42.0086 27.6039 44.1282 27.6039 44.1282C27.6039 44.1282 27.8071 41.9925 27.9321 41.1736C26.6664 40.4831 23.8069 39.6802 23.8069 39.6802C23.9007 39.0379 24.682 36.9022 24.682 36.9022C25.7601 36.9182 27.9946 37.8656 28.5883 38.1226C28.7758 37.2394 28.9946 36.2759 29.1821 35.457C28.2133 35.1037 26.3851 34.6862 26.3851 34.6862C26.4633 33.8672 26.9164 33.0643 28.1508 32.149Z" fill="#EFBF46"/>
  <path d="M29.8246 32.5024C29.3869 33.0806 28.668 33.6105 28.668 33.6105L29.5432 33.8996C29.5745 33.755 29.6058 33.6266 29.637 33.5302C29.7152 33.2572 29.7777 32.9039 29.8246 32.5024Z" fill="#EFBF46"/>
  <path d="M25.8088 23.6707C25.8088 24.0882 25.2463 24.4254 24.5587 24.4254C23.8711 24.4254 23.3086 24.0882 23.3086 23.6707C23.3086 23.2531 23.8711 22.9159 24.5587 22.9159C25.2463 22.9159 25.8088 23.2531 25.8088 23.6707Z" fill="#649DC5"/>
  <path d="M21.293 27.0108C21.293 27.0108 21.6055 25.6619 22.1993 24.9071C22.1993 24.9071 24.137 25.0356 25.0277 25.694C25.0277 25.694 24.2464 27.3802 24.1995 27.7495L21.293 27.0108Z" fill="white"/>
  <path d="M23.8086 39.6644C23.8086 39.6644 26.6682 40.4513 27.934 41.1579C27.9496 41.0776 27.9652 41.0134 27.9652 40.9652C28.0121 40.7083 28.2777 39.5038 28.5746 38.1228C27.9808 37.8658 25.7463 36.9184 24.668 36.9023C24.6837 36.8863 23.9024 39.0221 23.8086 39.6644Z" fill="white"/>
  <path d="M28.1993 27.2837C27.4336 28.2151 27.4023 29.5319 27.4023 29.5319H28.4181C28.4181 29.5319 28.8868 27.7012 29.7619 28.0224C29.7307 27.8297 29.6994 27.6209 29.6525 27.4443C29.6057 27.2195 29.5432 26.9786 29.4963 26.7538C29.215 26.6735 28.715 26.6574 28.1993 27.2837Z" fill="#1D1D1B"/>
  <path d="M29.8245 32.5027C29.9183 31.8122 29.9495 30.961 29.9339 30.0939C29.6683 30.5596 29.0588 31.4749 28.1525 32.1494C26.9024 33.0648 26.4649 33.8677 26.3867 34.6706C26.3867 34.6706 28.215 35.0882 29.1838 35.4415C29.3245 34.8312 29.4495 34.2852 29.5432 33.8998L28.6682 33.6108C28.6682 33.6108 29.4026 33.0808 29.8245 32.5027Z" fill="#1D1D1B"/>
  <path d="M24.6523 29.4516L26.1994 26.9304L26.6056 27.0428L24.6523 29.4516Z" fill="#1D1D1B" stroke="#1D1D1B" stroke-width="0.5" stroke-miterlimit="10" stroke-linecap="round" stroke-linejoin="round"/>
  <path d="M17.3867 39.0058C17.3867 39.0058 19.59 39.2146 21.2933 39.7445" stroke="#1D1D1B" stroke-width="0.5" stroke-miterlimit="10" stroke-linecap="round" stroke-linejoin="round"/>
  <path d="M25.7148 36.8701C25.7461 37.1109 25.7617 37.3518 25.793 37.5766" stroke="#1D1D1B" stroke-width="0.5" stroke-miterlimit="10" stroke-linecap="round" stroke-linejoin="round"/>
  <path d="M26.2617 37.0468C26.2617 37.2395 26.2617 37.4483 26.2617 37.641" stroke="#1D1D1B" stroke-width="0.5" stroke-miterlimit="10" stroke-linecap="round" stroke-linejoin="round"/>
  <path d="M21.668 35.2965C21.918 34.879 22.1838 34.4454 22.4338 34.0279" stroke="#1D1D1B" stroke-width="0.5" stroke-miterlimit="10" stroke-linecap="round" stroke-linejoin="round"/>
  <path d="M21.9648 25.5975C22.1055 25.2924 22.2618 24.9712 22.4025 24.6661" stroke="#1D1D1B" stroke-width="0.5" stroke-miterlimit="10" stroke-linecap="round" stroke-linejoin="round"/>
  <path d="M22.543 25.3084C22.6211 25.0836 22.6836 24.8588 22.7618 24.634" stroke="#1D1D1B" stroke-width="0.5" stroke-miterlimit="10" stroke-linecap="round" stroke-linejoin="round"/>
  <path d="M28.4454 61.3905C27.8672 61.7438 27.5234 62.0971 27.5234 62.0971V62.627L30.3987 62.7555C30.6175 62.4182 30.9456 62.1452 31.2738 61.9365C30.4768 61.3905 29.2423 61.3423 28.4454 61.3905Z" fill="#649DC5"/>
  <path d="M30.8362 60.668C29.8829 60.6519 29.0391 61.0213 28.4453 61.3906C29.2423 61.3425 30.4767 61.3906 31.2737 61.9527C31.7425 61.6476 32.1644 61.487 32.1644 61.487L32.5551 61.5673C32.5707 61.5673 32.6957 60.7001 30.8362 60.668Z" fill="#1D1D1B"/>
  <path d="M35.3517 62.1935L34.9923 61.1818C34.9923 61.1818 33.8672 61.519 33.4922 62.4504C33.4297 62.611 33.3828 62.7716 33.3516 62.9161C33.8516 62.9482 34.7111 63.0125 35.2736 63.1249C35.1642 62.611 35.3517 62.1935 35.3517 62.1935Z" fill="#1D1D1B"/>
  <path d="M35.8991 64.1526C35.5241 63.8154 35.3522 63.446 35.2741 63.1248C34.7115 63.0124 33.8521 62.9482 33.352 62.9161C33.1958 63.6227 33.3208 64.1365 33.3208 64.1365C33.3208 64.1365 34.3834 64.4577 35.0397 64.8431C35.696 65.2125 35.6647 65.63 36.1648 66.1921C36.6805 66.7541 37.9149 67.5089 37.9149 67.5089L35.8991 64.1526Z" fill="#649DC5"/>
  <path d="M10.2109 28.5686C10.2109 28.5686 11.2267 28.2956 11.8986 27.8941C12.5705 27.4926 12.8831 26.8021 12.8674 26.5773C12.8518 26.3525 12.1799 24.9072 12.1799 24.9072L10.8829 24.313L10.2109 27.9744V28.5686Z" fill="#EDEDF1"/>
  <path d="M10.5391 26.1597C10.5391 26.1597 11.8204 26.0633 12.1798 24.9071" stroke="#1D1D1B" stroke-width="0.5" stroke-miterlimit="10" stroke-linecap="round" stroke-linejoin="round"/>
  <path d="M12.2891 26.3362C12.3516 26.4647 12.3828 26.6253 12.3828 26.7698" stroke="#1D1D1B" stroke-width="0.5" stroke-miterlimit="10" stroke-linecap="round" stroke-linejoin="round"/>
  <path d="M12.4453 26.2719C12.4766 26.4164 12.5235 26.577 12.5547 26.7215" stroke="#1D1D1B" stroke-width="0.5" stroke-miterlimit="10" stroke-linecap="round" stroke-linejoin="round"/>
  <path d="M11.5392 21.9042L9.46098 33.8994C9.46098 33.8994 8.4922 34.4614 7.99219 33.5783L9.71099 21.3422L11.8048 21.5991L11.5392 21.9042Z" fill="#1D1D1B"/>
  <path d="M19.3516 50.1178H22.6175L19.8829 50.9689L19.3516 50.1178Z" fill="#1D1D1B" stroke="#1D1D1B" stroke-width="0.5" stroke-miterlimit="10" stroke-linecap="round" stroke-linejoin="round"/>
  <path d="M10.7113 49.4756H6.77344L10.9457 50.2785L10.7113 49.4756Z" fill="#1D1D1B" stroke="#1D1D1B" stroke-width="0.5" stroke-miterlimit="10" stroke-linecap="round" stroke-linejoin="round"/>
  <path d="M22.2422 50.9048C22.9454 51.0493 23.6173 51.3063 24.2424 51.6596" stroke="#1D1D1B" stroke-width="0.5" stroke-miterlimit="10" stroke-linecap="round" stroke-linejoin="round"/>
  <path d="M6.36723 49.4755C6.36723 49.4755 6.77349 49.2828 6.63286 48.8331C6.47661 48.3835 6.44536 47.966 6.44536 47.966C6.44536 47.966 6.2891 47.5967 8.02353 47.1471C9.75796 46.6974 15.8675 45.6055 17.1488 44.4975C18.1801 43.5822 19.852 41.4144 20.4301 40.6276L18.2895 40.2422C17.7738 40.9808 16.8207 42.3136 16.3675 42.6187C15.7425 43.0684 11.7424 44.0479 10.3673 44.4493C8.97668 44.8669 5.49221 45.9909 5.11719 46.5369C4.96094 46.7777 4.89844 47.2434 4.88281 47.677C5.22657 49.2025 5.71096 50.6156 5.71096 50.6156L5.99222 51.3542L7.13288 51.9644L6.36723 49.4755Z" fill="#1D1D1B"/>
  <path d="M2.80518 40.451C2.80518 40.451 1.74265 40.5795 0.945753 40.9809C0.148855 41.3984 -0.366786 42.7794 0.320735 43.5983C1.00825 44.4173 1.7739 44.6903 1.7739 44.6903C1.7739 44.6903 2.94581 48.4799 4.2896 49.877C5.63339 51.274 6.75842 52.0608 7.13344 52.9119C7.49282 53.779 10.696 63.3495 10.9304 64.1685C11.1648 64.9874 10.9304 65.5976 10.9304 65.5976C10.9304 65.5976 11.5398 65.5976 11.6804 65.148C11.8211 64.6984 10.1491 60.0255 9.46163 57.8577C8.77411 55.6899 8.03971 52.8637 7.5397 52.2375C7.02406 51.6112 4.89899 49.0901 4.89899 49.0901L2.41455 42.3137L2.80518 40.451Z" fill="white"/>
  <path d="M11.4615 63.7672C11.4615 63.7672 11.1802 62.5628 12.196 62.2256C13.2117 61.8884 14.9618 61.4708 14.9618 61.4708" stroke="#1D1D1B" stroke-width="0.5" stroke-miterlimit="10" stroke-linecap="round" stroke-linejoin="round"/>
  <path d="M23.742 59.6722C23.742 59.6722 22.1169 60.2824 21.8982 61.4868C21.6794 62.6911 22.3982 63.1568 23.742 63.1407C25.0858 63.1086 29.9297 63.1407 29.9297 63.1407C29.9297 63.1407 30.2109 63.6707 31.0859 63.7831C31.961 63.8955 33.9923 64.1684 33.9923 64.1684C33.9923 64.1684 33.1172 63.1407 32.6016 62.9962C32.086 62.8517 31.2578 62.7714 31.2578 62.7714L31.1797 62.6911C30.7734 62.2094 30.164 61.9525 29.5546 62.0006C28.3827 62.0809 26.5389 62.1773 26.1795 62.1773C25.6483 62.1773 24.7108 62.4181 24.7108 62.4181L23.4138 61.0532L23.742 59.6722Z" fill="white"/>
  <path d="M21.9141 62.4182C21.9141 62.4182 22.6172 65.2283 23.4297 65.8546C24.2423 66.4969 25.1642 66.6735 25.1642 66.6735C25.1642 66.6735 26.2111 67.4443 27.5236 67.5407C28.8361 67.6531 36.2739 67.5888 36.8676 67.5407C37.4614 67.4925 38.1645 67.1071 38.1645 67.1071L34.7738 63.3335L27.9299 62.6109L23.2422 62.7394L21.9141 62.4182Z" fill="#EFBF46"/>
  <path d="M22.6172 64.5377C22.6172 64.5377 25.5548 65.0516 27.9455 65.2443C30.3362 65.437 35.2426 67.0106 37.4457 66.3041" stroke="#1D1D1B" stroke-width="0.5" stroke-miterlimit="10" stroke-linecap="round" stroke-linejoin="round"/>
  <path d="M10.5548 66.8341C11.7267 66.802 12.9923 66.7217 13.7267 66.529C14.383 66.3524 16.1487 65.2925 17.3519 65.2444C17.2737 65.0999 17.1956 64.9874 17.1956 64.9874C17.1956 64.9874 16.7268 63.751 16.3518 63.0444C15.9924 62.3379 15.8831 61.5029 15.508 61.4708C15.1487 61.4387 14.4455 61.3584 14.3049 62.37C14.1643 63.3817 14.2736 65.4692 14.383 65.5816C14.4924 65.694 14.5705 65.9349 14.5705 65.9349L10.2266 65.8546L10.4298 64.7626L9.99226 64.6502C9.99226 64.6502 8.25784 65.2123 7.46094 65.6298L7.57032 66.529C7.57032 66.5451 9.39849 66.8823 10.5548 66.8341Z" fill="#1D1D1B"/>
  <path d="M13.7255 66.5449C12.9911 66.7376 11.7254 66.8019 10.5535 66.85C9.38159 66.8822 7.56904 66.5449 7.56904 66.5449L7.45966 65.6457C7.3034 65.726 7.19402 65.8063 7.13152 65.8705C6.72526 66.288 6.94402 66.85 7.49091 67.107C8.0378 67.3639 9.24096 67.7493 10.3972 67.669C11.5535 67.5887 14.0692 66.8822 14.0692 66.8822C14.0692 66.8822 16.9131 66.8822 17.3506 66.3201C17.6318 65.9669 17.4756 65.5333 17.3349 65.2603C16.1474 65.3085 14.3817 66.3683 13.7255 66.5449Z" fill="#EFBF46"/>
  <path d="M12.4143 53.0245C12.3049 52.1895 11.6955 50.969 11.6955 50.969L11.2267 51.2741C11.2267 51.2741 11.2892 51.4668 10.2579 51.8041C10.0547 51.8683 9.83596 51.9325 9.60156 51.9807C9.85158 52.4464 10.2579 53.3457 10.4141 54.4377C11.4455 53.7953 12.4143 53.0245 12.4143 53.0245Z" fill="#1D1D1B"/>
  <path d="M9.61737 51.9645C8.64853 52.1732 7.53906 52.2375 7.53906 52.2375L8.67979 55.2405C9.13295 55.1762 9.78926 54.8229 10.4299 54.4215C10.2737 53.3455 9.85177 52.4302 9.61737 51.9645Z" fill="#649DC5"/>
  <path d="M9.96094 59.3511L10.6798 61.487C11.2579 61.4388 11.8205 61.2621 12.3205 61.0373L11.8361 58.9015C10.8516 59.2387 9.96094 59.3511 9.96094 59.3511Z" fill="#649DC5"/>
  <path d="M13.8674 57.7131C13.383 58.2752 12.5704 58.6606 11.8203 58.9175L12.3047 61.0534C13.5548 60.5074 14.4768 59.6723 14.4768 59.6723C14.6799 58.4518 13.8674 57.7131 13.8674 57.7131Z" fill="#1D1D1B"/>
  <path d="M23.7427 59.6722C23.7427 59.6722 22.3832 60.3146 22.602 61.1818C22.8207 62.0489 23.4458 62.3219 23.6489 62.4183L24.7271 62.4022L23.7427 59.6722Z" fill="#1D1D1B"/>
  <path d="M35.5859 62.0649C35.5859 62.0649 36.3049 62.4985 36.2893 63.1248C36.2737 63.7672 35.8985 64.1526 35.8985 64.1526" stroke="#1D1D1B" stroke-width="0.5" stroke-miterlimit="10" stroke-linecap="round" stroke-linejoin="round"/>
  <path d="M37.8985 64.1524C37.7891 62.8517 37.3204 62.113 36.6641 60.6678C36.2734 59.8167 36.3985 59.1102 36.5547 58.6766C35.8828 59.0139 35.8203 59.8167 35.8203 59.8167L36.3985 62.6429C36.3985 62.6429 36.6172 64.7626 36.7578 65.6136C36.8203 66.0311 37.2891 66.818 37.8047 67.5566C37.711 66.4165 37.9766 65.0677 37.8985 64.1524Z" fill="#EFBF46"/>
  <path d="M42.4162 64.891C42.0568 64.0721 41.0724 62.6911 41.0256 62.6269C40.9943 62.5787 39.8224 58.789 39.2755 58.3876C38.7286 57.9701 37.4942 58.3073 36.6973 58.6124C36.6504 58.6285 36.6036 58.6445 36.5567 58.6766C36.4004 59.1102 36.2754 59.8167 36.6661 60.6678C37.3223 62.1291 37.7911 62.8677 37.9005 64.1524C37.9786 65.0516 37.713 66.4165 37.8067 67.5566C38.3692 68.3756 38.9786 69.1303 39.1661 69.3069C39.5255 69.6441 40.9631 69.612 41.4631 69.4514C41.9787 69.3069 42.7756 65.71 42.4162 64.891Z" fill="#1D1D1B"/>
  <path d="M40.1189 69.5639C40.1189 69.5639 38.2907 67.7654 37.9157 66.529C37.5407 65.2925 37.6814 64.1685 38.1189 63.8634C38.5564 63.5743 39.572 64.9071 40.1189 64.7947C40.6658 64.6823 40.8064 63.6064 41.1033 63.3656C41.4002 63.1408 42.3377 63.7831 42.7128 64.6341C43.0721 65.5013 43.119 68.8895 42.7128 69.5318C42.3065 70.2062 40.6189 70.0938 40.1189 69.5639Z" fill="#649DC5"/>
  <path d="M38.3059 63.8313C38.3059 63.8313 37.759 64.8108 38.1184 65.9028C38.4778 66.9947 40.4466 69.9815 41.1654 69.9815" stroke="#1D1D1B" stroke-width="0.5" stroke-miterlimit="10" stroke-linecap="round" stroke-linejoin="round"/>
  <path d="M12.4926 33.8994C12.4926 33.8994 12.1489 32.9359 12.6176 32.3418C13.0864 31.7477 13.5395 31.6995 13.5395 31.6995C13.5395 31.6995 18.149 30.6878 18.5397 30.5594C18.9303 30.4309 20.071 28.1989 20.071 28.1989C20.071 28.1989 20.9148 27.9419 22.4617 28.3755C24.0086 28.8091 24.4774 29.5317 24.4774 29.5317C24.4774 29.5317 21.6023 34.7023 20.0866 34.8308C18.5866 34.9592 12.4926 33.8994 12.4926 33.8994Z" fill="#D19478"/>
  <path d="M20.0898 28.1988C20.0898 28.1988 22.5901 28.2149 24.2777 29.9011L24.4965 29.5317C24.4965 29.5317 23.3401 28.0383 20.0898 28.1988Z" fill="#1D1D1B" stroke="#1D1D1B" stroke-width="0.5" stroke-miterlimit="10" stroke-linecap="round" stroke-linejoin="round"/>
  <path d="M13.9809 31.603L13.5589 34.0761L12.668 33.9316L13.9809 31.603Z" fill="#1D1D1B" stroke="#1D1D1B" stroke-width="0.5" stroke-miterlimit="10" stroke-linecap="round" stroke-linejoin="round"/>
  <path d="M13.9797 31.6032C13.9797 31.6032 14.0891 31.1375 13.6359 31.1054C13.1827 31.0732 12.3702 30.6396 12.3702 30.6396C12.3702 30.6396 10.0575 32.7434 10.1512 33.2091C10.245 33.6748 10.8388 33.3375 10.8388 33.3375C10.8388 33.3375 11.8545 33.8193 12.167 33.9156C12.4795 34.012 12.4795 34.1726 12.8702 33.8354C13.2765 33.4821 13.9797 31.6032 13.9797 31.6032Z" fill="#EDEDF1"/>
  <path d="M9.35361 27.7813C9.60362 27.6368 9.86925 27.5726 10.0724 27.5405C9.36924 26.9463 8.71297 26.3361 8.71297 26.3361C8.71297 26.3361 7.15042 25.6135 6.82229 25.9507C6.49415 26.288 6.69728 26.7536 6.82229 26.8821C6.94729 27.0106 7.08792 27.123 7.08792 27.123C7.08792 27.123 7.08792 27.123 7.0723 27.123L7.72856 27.5084C7.35355 27.8456 7.29105 28.6324 7.29105 28.6324C6.82229 29.3068 7.29105 29.7725 7.29105 29.7725C6.94729 30.0294 6.79104 30.3827 6.71291 30.6396C7.0723 30.9608 7.58793 31.3462 8.02545 31.6834C8.2442 30.736 8.90047 28.0383 9.35361 27.7813Z" fill="#EDEDF1"/>
  <path d="M7.29116 29.7727C7.29116 29.7727 6.82237 29.307 7.29116 28.6325C7.29116 28.6325 7.33804 27.8296 7.7287 27.5084L7.07239 27.123C7.00988 27.1712 6.63485 27.396 6.63485 27.7332C6.63485 28.1026 6.86925 28.2632 6.86925 28.2632C6.86925 28.2632 6.38483 28.6325 6.44733 28.9216C6.52547 29.1946 6.6661 29.3873 6.6661 29.3873C6.6661 29.3873 6.02542 29.7727 6.29107 30.1902C6.35358 30.2866 6.50984 30.4472 6.72861 30.6238C6.79111 30.3829 6.94738 30.0296 7.29116 29.7727Z" fill="#EFBF46"/>
  <path d="M11.1682 28.3916C11.0901 28.3274 10.9963 28.2632 10.8869 28.1829C10.6681 28.1989 10.3556 28.2632 10.0587 28.4398C9.6368 28.6967 9.01174 31.1859 8.76172 32.2297C8.8086 32.2618 8.83985 32.2939 8.87111 32.31C9.21489 32.583 10.2775 33.0326 10.8557 32.9363C11.2307 32.872 12.5277 30.9932 12.5277 30.688C12.5121 30.415 12.0276 28.9858 11.1682 28.3916Z" fill="#EFBF46"/>
  <path d="M10.0588 28.4559C10.3713 28.2792 10.6838 28.215 10.887 28.1989C10.637 28.0062 10.3557 27.7814 10.0744 27.5405C9.87126 27.5726 9.60561 27.6369 9.35559 27.7814C8.90242 28.0384 8.24611 30.7362 8.02734 31.6998C8.32425 31.9246 8.58989 32.1334 8.76178 32.2458C8.99618 31.1859 9.62124 28.6968 10.0588 28.4559Z" fill="#649DC5"/>
  <path d="M8.08667 27.1873C8.08667 27.1873 7.75844 27.1391 7.44584 26.834C7.13324 26.5289 7.55525 26.2077 7.86785 26.1595C8.18045 26.1114 8.64934 26.4647 8.64934 26.4647L8.08667 27.1873Z" fill="#EFBF46"/>
  <path d="M6.66797 29.4034L8.02777 30.1903" stroke="#1D1D1B" stroke-width="0.5" stroke-miterlimit="10" stroke-linecap="round" stroke-linejoin="round"/>
  <path d="M6.87109 28.2792L8.27747 29.0339" stroke="#1D1D1B" stroke-width="0.5" stroke-miterlimit="10" stroke-linecap="round" stroke-linejoin="round"/>
  <path d="M7.73047 27.5084L8.54322 27.8938" stroke="#1D1D1B" stroke-width="0.5" stroke-miterlimit="10" stroke-linecap="round" stroke-linejoin="round"/>
  <path d="M11.2305 29.1945C11.293 29.3711 11.3399 29.5478 11.4024 29.7405" stroke="#1D1D1B" stroke-width="0.5" stroke-miterlimit="10" stroke-linecap="round" stroke-linejoin="round"/>
  <path d="M10.9805 29.4514C11.0274 29.5959 11.0899 29.7565 11.1368 29.9011" stroke="#1D1D1B" stroke-width="0.5" stroke-miterlimit="10" stroke-linecap="round" stroke-linejoin="round"/>
  <path d="M9.86744 23.0283C10.1175 22.9802 10.2894 22.1612 10.2112 21.8882C10.1487 21.6473 8.58608 20.8122 7.77351 20.9086C7.83601 21.021 7.89852 21.1334 7.89852 21.2137C7.92977 21.4385 7.55474 22.3057 7.55474 22.3057L7.22658 23.6546H7.4141L7.13282 24.7466L7.32034 24.7788L6.99219 25.9671C7.50786 26.0635 8.80485 26.2722 9.35177 26.1438C10.0237 25.9832 9.67993 25.2766 9.67993 25.2766C10.305 24.9393 9.86744 24.1525 9.86744 24.1525C10.5394 23.5101 9.86744 23.0283 9.86744 23.0283Z" fill="#EDEDF1"/>
  <path d="M7.14908 24.7627L7.43035 23.6707H7.24283L7.57099 22.3218C7.57099 22.3218 7.94602 21.4546 7.91477 21.2298C7.89914 21.1334 7.85226 21.021 7.78976 20.9247C7.71163 20.9407 7.64912 20.9568 7.58661 20.9729C6.8678 21.278 7.13345 22.3539 7.13345 22.3539C6.35213 22.7393 6.82092 23.5904 6.82092 23.5904C6.22712 24.2489 6.64903 24.6824 6.64903 24.6824C6.64903 24.6824 6.3365 24.8912 6.35213 25.3409C6.36776 25.7905 6.82092 25.9511 6.82092 25.9511C6.82092 25.9511 6.89905 25.9672 7.03969 25.9993L7.36785 24.8109L7.14908 24.7627Z" fill="#EFBF46"/>
  <path d="M6.63281 24.6661L9.71121 25.2924" stroke="#1D1D1B" stroke-width="0.5" stroke-miterlimit="10" stroke-linecap="round" stroke-linejoin="round"/>
  <path d="M6.80469 23.5741L9.88309 24.1683" stroke="#1D1D1B" stroke-width="0.5" stroke-miterlimit="10" stroke-linecap="round" stroke-linejoin="round"/>
  <path d="M7.11719 22.3539L9.86743 23.0284" stroke="#1D1D1B" stroke-width="0.5" stroke-miterlimit="10" stroke-linecap="round" stroke-linejoin="round"/>
  <path d="M11.9757 24.0239C12.4757 24.0239 12.9601 24.2006 13.1789 24.2969C13.2101 24.2006 13.2258 24.1203 13.2258 24.0239C13.2414 23.5904 12.2257 22.8195 11.6631 22.6911C11.1006 22.5626 10.4286 22.8035 10.3661 23.4458C10.3193 24.1042 10.8662 24.313 10.8662 24.313C10.8662 24.313 10.9756 24.3933 11.1787 24.5057C11.2881 24.313 11.5069 24.0239 11.9757 24.0239Z" fill="#EDEDF1"/>
  <path d="M11.9766 24.0239C11.5078 24.0239 11.2891 24.313 11.1953 24.5057C11.3985 24.6181 11.6954 24.7787 12.0548 24.9072C12.6486 25.1159 13.0392 24.6984 13.1642 24.2969C12.9611 24.2006 12.4923 24.0239 11.9766 24.0239Z" fill="#EFBF46"/>
  <path d="M16.0234 66.2078C16.1172 66.0633 16.211 65.9027 16.3204 65.7582" stroke="#1D1D1B" stroke-width="0.5" stroke-miterlimit="10" stroke-linecap="round" stroke-linejoin="round"/>
  <path d="M16.5703 66.0473C16.711 65.9831 16.8204 65.8386 16.8673 65.678" stroke="#1D1D1B" stroke-width="0.5" stroke-miterlimit="10" stroke-linecap="round" stroke-linejoin="round"/>
  <path d="M25.4922 66.1597C25.7266 66.4327 26.0392 66.6575 26.3675 66.802" stroke="#1D1D1B" stroke-width="0.5" stroke-miterlimit="10" stroke-linecap="round" stroke-linejoin="round"/>
  <path d="M26.2891 66.4166C26.461 66.6896 26.7736 66.8502 27.0862 66.8342" stroke="#1D1D1B" stroke-width="0.5" stroke-miterlimit="10" stroke-linecap="round" stroke-linejoin="round"/>
  <path d="M36.6953 65.5334C36.9454 66.1116 37.2736 66.6576 37.68 67.1393" stroke="#1D1D1B" stroke-width="0.5" stroke-miterlimit="10" stroke-linecap="round" stroke-linejoin="round"/>
  <path d="M37.3516 62.8677C37.3828 63.2531 37.3985 63.6385 37.4297 64.0239" stroke="#1D1D1B" stroke-width="0.5" stroke-miterlimit="10" stroke-linecap="round" stroke-linejoin="round"/>
  <path d="M38.9611 65.9991C39.1769 65.9991 39.3518 65.8194 39.3518 65.5976C39.3518 65.3759 39.1769 65.1962 38.9611 65.1962C38.7453 65.1962 38.5703 65.3759 38.5703 65.5976C38.5703 65.8194 38.7453 65.9991 38.9611 65.9991Z" fill="#EFBF46"/>
  <path d="M41.9611 65.421C42.1769 65.421 42.3518 65.2412 42.3518 65.0195C42.3518 64.7978 42.1769 64.618 41.9611 64.618C41.7453 64.618 41.5703 64.7978 41.5703 65.0195C41.5703 65.2412 41.7453 65.421 41.9611 65.421Z" fill="#EFBF46"/>
  <path d="M39.9767 67.7172C40.1925 67.7172 40.3674 67.5375 40.3674 67.3158C40.3674 67.0941 40.1925 66.9143 39.9767 66.9143C39.7609 66.9143 39.5859 67.0941 39.5859 67.3158C39.5859 67.5375 39.7609 67.7172 39.9767 67.7172Z" fill="#EFBF46"/>
  <path d="M42.1173 67.2517C42.3331 67.2517 42.5081 67.0719 42.5081 66.8502C42.5081 66.6285 42.3331 66.4487 42.1173 66.4487C41.9015 66.4487 41.7266 66.6285 41.7266 66.8502C41.7266 67.0719 41.9015 67.2517 42.1173 67.2517Z" fill="#EFBF46"/>
  <path d="M41.7111 69.0661C41.9269 69.0661 42.1018 68.8864 42.1018 68.6647C42.1018 68.4429 41.9269 68.2632 41.7111 68.2632C41.4953 68.2632 41.3203 68.4429 41.3203 68.6647C41.3203 68.8864 41.4953 69.0661 41.7111 69.0661Z" fill="#EFBF46"/>
</svg>