<svg xmlns="http://www.w3.org/2000/svg" width="25" height="30" viewBox="0 0 25 30" fill="none">
  <path d="M20.1212 0C20.7235 0.230179 20.9799 0.664959 20.9158 1.29156C20.8902 1.58567 20.9799 1.64961 21.2619 1.63683C22.0309 1.61125 22.8127 1.62403 23.5817 1.62403C24.4276 1.62403 24.9788 2.17391 24.9788 3.0179C24.9659 4.11764 25.0557 5.23018 24.9403 6.31713C24.6327 9.20716 23.1844 11.3427 20.5954 12.6854C19.365 13.3248 18.1089 13.8875 16.8528 14.4629C16.5196 14.6164 16.3273 14.8849 16.0838 15.1279C15.9941 15.2174 16.0582 15.2557 16.1223 15.3069C16.3786 15.5243 16.4683 15.8184 16.4683 16.1509C16.4683 16.5857 16.4811 17.0332 16.4683 17.468C16.4555 18.1458 16.0454 18.5422 15.3533 18.555C14.7893 18.5678 14.7893 18.5678 14.7893 19.1176C14.7893 19.6164 14.8021 20.1151 14.7893 20.6138C14.7893 20.7928 14.8278 20.844 15.0072 20.844C15.8147 20.8312 16.6093 20.8312 17.4168 20.844C18.7754 20.844 19.7238 21.7775 19.7238 23.1458C19.7238 23.7212 19.7238 24.2967 19.7238 24.8721C19.7238 25.2046 19.5572 25.4092 19.2881 25.4092C19.0189 25.4092 18.8523 25.2046 18.8523 24.8721C18.8523 24.2711 18.8523 23.6829 18.8523 23.0818C18.8523 22.2762 18.2883 21.7263 17.4809 21.7263C14.1613 21.7263 10.8545 21.7263 7.53493 21.7263C6.74028 21.7263 6.17633 22.289 6.17633 23.0946C6.17633 24.0665 6.18915 25.0256 6.16352 25.9974C6.16352 26.2404 6.21479 26.3043 6.45831 26.3043C10.6238 26.2916 14.7893 26.3043 18.9548 26.3043C19.4419 26.3043 19.9289 26.3043 20.4159 26.3043C21.0312 26.3171 21.4669 26.7391 21.4797 27.3529C21.4926 27.8772 21.4797 28.4015 21.4797 28.9386C21.4669 29.5652 21.044 30 20.4031 30C18.6857 30 16.9554 30 15.2379 30C11.7389 30 8.23986 30 4.74084 30C3.90774 30 3.53605 29.6164 3.52323 28.7852C3.52323 28.312 3.52323 27.8517 3.52323 27.3785C3.53605 26.7519 3.95901 26.3299 4.59985 26.3171C4.81774 26.3171 5.12535 26.4194 5.2407 26.2788C5.35605 26.1381 5.27915 25.8568 5.27915 25.6266C5.27915 24.7954 5.27915 23.9642 5.27915 23.133C5.27915 21.8159 6.2276 20.8696 7.56056 20.8696C8.36803 20.8696 9.16268 20.8696 9.97014 20.8696C10.1496 20.8696 10.2265 20.844 10.2137 20.6394C10.2008 20.0384 10.2008 19.4245 10.2137 18.8235C10.2137 18.6189 10.1496 18.5678 9.97014 18.5933C8.90634 18.6957 8.45775 18.1586 8.53465 17.1483C8.56029 16.8414 8.54747 16.5217 8.53465 16.2148C8.53465 15.8824 8.61155 15.5754 8.88071 15.3453C8.97042 15.2685 8.97043 15.2174 8.89352 15.1407C8.63719 14.8721 8.40648 14.6164 8.04761 14.4501C6.88127 13.9258 5.71493 13.376 4.5614 12.8005C1.61351 11.3171 0.113928 8.91304 0.0113928 5.6266C-0.014241 4.78261 0.0113928 3.92583 0.0113928 3.08184C0.0113928 2.19949 0.562521 1.6624 1.43407 1.6624C2.24154 1.6624 3.03619 1.6624 3.84366 1.6624C4.02309 1.6624 4.08717 1.62403 4.07436 1.43222C4.06154 1.21483 4.04873 0.984655 4.11281 0.767264C4.21534 0.370844 4.52295 0.166234 4.86901 0.0255692C9.95733 -6.24439e-06 15.0328 0 20.1212 0Z" fill="black"/>
  <path d="M12.5212 0.868736C14.9052 0.868736 17.2891 0.868736 19.6731 0.868736C19.955 0.868736 20.0447 0.945461 20.0447 1.22679C20.0576 3.04265 20.0191 4.84572 19.5962 6.636C18.8528 9.79457 17.3532 12.5567 15.1102 14.8969C14.9949 15.012 14.8795 15.0503 14.7257 15.0503C13.239 15.0503 11.7522 15.0503 10.2654 15.0503C10.0988 15.0503 9.98346 14.9992 9.85529 14.8713C7.18937 12.0708 5.60007 8.75876 5.0874 4.93523C4.92078 3.66925 4.94641 2.40326 4.93359 1.13728C4.93359 0.881521 5.07458 0.868736 5.26683 0.868736C7.70205 0.868736 10.1116 0.868736 12.5212 0.868736Z" fill="white"/>
  <path d="M12.4805 29.0918C9.90433 29.0918 7.34095 29.0918 4.76474 29.0918C4.46995 29.0918 4.36742 29.015 4.38024 28.7209C4.40587 28.3245 4.40587 27.9153 4.38024 27.5189C4.36742 27.2375 4.44432 27.148 4.73911 27.148C6.57193 27.1608 8.41757 27.148 10.2504 27.148C13.57 27.148 16.8767 27.148 20.1963 27.148C20.5808 27.148 20.5808 27.148 20.5808 27.5317C20.5808 27.9281 20.568 28.3117 20.5808 28.6953C20.5937 28.9895 20.5167 29.079 20.2091 29.079C17.7739 29.0662 15.3387 29.0662 12.9035 29.0662C12.7753 29.0918 12.6343 29.0918 12.4805 29.0918Z" fill="#FEFEFE"/>
  <path d="M7.18943 13.0555C5.63859 12.2626 3.94675 11.7255 2.72914 10.37C1.53717 9.01454 0.921955 7.45444 0.896321 5.66416C0.883504 4.7946 0.896321 3.92503 0.896321 3.05546C0.896321 2.65904 1.05012 2.50559 1.44745 2.50559C2.25491 2.50559 3.04956 2.50559 3.85703 2.50559C4.03647 2.50559 4.08774 2.54396 4.08774 2.72299C4.08774 3.38795 4.10055 3.38795 3.43407 3.38795C3.03675 3.38795 2.65224 3.38795 2.25491 3.38795C1.97294 3.38795 1.78069 3.5414 1.78069 3.79715C1.79351 4.94804 1.67815 6.09895 1.99858 7.22427C2.37027 8.5414 3.08802 9.62835 4.16464 10.4723C4.43379 10.6897 4.69013 10.6897 4.85675 10.4723C5.02337 10.2677 4.9721 9.9992 4.71576 9.7946C3.65196 8.95061 2.98548 7.85086 2.74196 6.52094C2.61379 5.81762 2.67787 5.1015 2.66506 4.38539C2.66506 4.28309 2.70351 4.25751 2.80604 4.25751C3.20337 4.25751 3.61351 4.2703 4.01083 4.25751C4.17745 4.25751 4.17745 4.34702 4.19027 4.46211C4.38253 6.61045 4.95929 8.66928 5.89492 10.613C6.26661 11.4059 6.70239 12.1731 7.18943 12.902C7.17662 12.9404 7.22788 12.9787 7.18943 13.0555Z" fill="#FEFEFE"/>
  <path d="M17.7383 13.0938C18.0331 12.6207 18.2766 12.2115 18.5329 11.7895C18.6098 11.6744 18.738 11.6488 18.8534 11.5977C19.5711 11.2524 20.3145 10.9327 20.9297 10.4212C22.4165 9.18079 23.1855 7.59511 23.2367 5.66416C23.2496 5.08871 23.2367 4.51327 23.2367 3.93782C23.2367 3.5414 23.0829 3.38795 22.6856 3.38795C22.1729 3.38795 21.6731 3.37516 21.1604 3.38795C20.981 3.38795 20.9041 3.36237 20.9169 3.14498C20.9425 2.50559 20.9297 2.50559 21.5834 2.50559C22.2627 2.50559 22.9291 2.50559 23.6084 2.50559C23.9417 2.50559 24.1211 2.65905 24.1211 2.97874C24.1083 4.09127 24.198 5.2038 24.0827 6.31633C23.8391 8.66927 22.6728 10.4723 20.6477 11.6872C19.7249 12.2243 18.738 12.6079 17.7383 13.0938Z" fill="#FEFEFE"/>
  <path d="M12.4954 17.6851C11.5982 17.6851 10.701 17.6851 9.80383 17.6851C9.41932 17.6851 9.41932 17.6851 9.41932 17.2887C9.41932 16.9434 9.43214 16.5854 9.41932 16.2401C9.4065 16.0227 9.4834 15.9204 9.71411 15.9204C11.5726 15.9332 13.431 15.9332 15.2895 15.9204C15.5074 15.9204 15.5971 15.9843 15.5843 16.2017C15.5714 16.5982 15.5714 17.0074 15.5843 17.4038C15.5971 17.634 15.4945 17.6851 15.2895 17.6851C14.3538 17.6851 13.4182 17.6851 12.4954 17.6851Z" fill="#FEFEFE"/>
  <path d="M19.2383 10.422C20.1098 8.50388 20.6481 6.53457 20.8404 4.47575C20.8532 4.33508 20.8917 4.27114 21.0455 4.27114C21.43 4.28393 21.8017 4.27114 22.1862 4.27114C22.2759 4.27114 22.3528 4.27114 22.3528 4.39902C22.3528 5.53713 22.3912 6.67524 21.9042 7.7494C21.3659 8.92587 20.3662 9.96168 19.2383 10.422Z" fill="#FEFEFE"/>
  <path d="M12.483 20.8309C12.0857 20.8309 11.6755 20.8181 11.2782 20.8309C11.1244 20.8309 11.0859 20.7925 11.0859 20.6391C11.0988 19.9997 11.0988 19.3731 11.0859 18.7337C11.0859 18.5931 11.1244 18.5547 11.2654 18.5547C12.0857 18.5547 12.9059 18.5675 13.7262 18.5547C13.8672 18.5547 13.9057 18.6058 13.9057 18.7337C13.9057 19.3731 13.8928 19.9997 13.9057 20.6391C13.9057 20.7925 13.8672 20.8309 13.7134 20.8309C13.3033 20.8309 12.8931 20.8309 12.483 20.8309Z" fill="#FEFEFE"/>
  <path d="M10.1741 5.46161C10.4432 5.43603 10.8405 5.58949 11.0584 5.41046C11.2635 5.24422 11.2891 4.8478 11.3788 4.55368C11.4558 4.31071 11.5327 4.06775 11.6096 3.83757C11.7505 3.42836 12.0838 3.17261 12.4811 3.17261C12.8912 3.17261 13.2245 3.41557 13.3655 3.85036C13.5193 4.3235 13.6859 4.78386 13.8269 5.26979C13.8782 5.43603 13.9551 5.48719 14.1089 5.4744C14.5831 5.46161 15.0701 5.46161 15.5444 5.4744C16.0442 5.4744 16.3775 5.69179 16.5056 6.08821C16.6466 6.49741 16.5056 6.86826 16.0955 7.17516C15.7366 7.44371 15.3777 7.72503 15.006 7.95521C14.7882 8.09588 14.7753 8.22376 14.8522 8.45394C15.006 8.87593 15.1342 9.29793 15.2752 9.73271C15.4162 10.1931 15.3136 10.5767 14.9676 10.8324C14.6215 11.0882 14.237 11.0754 13.8269 10.7813C13.4424 10.5128 13.0579 10.2442 12.6862 9.9501C12.5067 9.80944 12.3914 9.83501 12.2376 9.96289C11.8787 10.2442 11.4942 10.5128 11.1225 10.7685C10.7124 11.0626 10.315 11.0754 9.95617 10.8197C9.62293 10.5639 9.5204 10.1931 9.66138 9.71992C9.80237 9.27235 9.94335 8.81199 10.11 8.36442C10.1741 8.18539 10.1228 8.10867 9.98181 8.00637C9.58448 7.73782 9.19997 7.44371 8.81546 7.16238C8.41814 6.86826 8.27716 6.49741 8.40532 6.10099C8.53349 5.71736 8.85391 5.48719 9.32814 5.4744C9.63575 5.46161 9.87927 5.46161 10.1741 5.46161Z" fill="white"/>
  <path d="M12.5061 4.0037C12.6984 4.60472 12.865 5.10344 13.0316 5.61495C13.1982 6.12646 13.4802 6.33106 14.0313 6.34385C14.5696 6.34385 15.1208 6.34385 15.6719 6.40779C15.2746 6.70191 14.8772 6.98324 14.4671 7.27735C13.8775 7.69935 13.7878 7.96789 14.0057 8.64564C14.1595 9.13158 14.3133 9.60473 14.4927 10.1674C14.0185 9.82212 13.6084 9.528 13.1854 9.22109C12.6471 8.82467 12.3139 8.82467 11.7884 9.20831C11.3654 9.51521 10.9553 9.80932 10.481 10.1546C10.6733 9.57915 10.8271 9.06764 10.9937 8.56892C11.1731 7.99347 11.0706 7.68657 10.5964 7.32851C10.1734 7.0216 9.75047 6.71469 9.28906 6.38221C9.53258 6.30549 9.75047 6.34385 9.95554 6.34385C10.3016 6.33106 10.6605 6.34385 11.0065 6.34385C11.4936 6.33106 11.7884 6.12646 11.9422 5.65331C12.0832 5.21853 12.2241 4.78375 12.3651 4.34897C12.4036 4.25946 12.442 4.18273 12.5061 4.0037Z" fill="white"/>
</svg>