<svg xmlns="http://www.w3.org/2000/svg" width="46" height="74" viewBox="0 0 46 74" fill="none">
  <g opacity="0.5">
    <path d="M16.5265 74.0001C25.6538 74.0001 33.0529 73.3239 33.0529 72.4897C33.0529 71.6556 25.6538 70.9794 16.5265 70.9794C7.39915 70.9794 0 71.6556 0 72.4897C0 73.3239 7.39915 74.0001 16.5265 74.0001Z" fill="#D9C4A0"/>
  </g>
  <path d="M24.3839 16.6066C24.3839 16.6066 29.3856 22.2075 30.24 22.9837C30.24 22.9837 38.4928 24.6409 39.785 24.8926L39.4723 26.2141C39.4723 26.2141 32.4074 27.263 28.8854 26.7386C25.9678 26.2981 21.2578 20.4035 21.2578 20.4035L24.3839 16.6066Z" fill="#A05544"/>
  <path d="M30.1131 22.9837C29.592 23.2355 29.2169 23.6969 29.0919 24.2424C29.071 24.3472 29.2169 24.3892 29.2378 24.2843C29.3628 23.7599 29.6962 23.3403 30.1964 23.1096C30.3006 23.0676 30.2173 22.9418 30.1131 22.9837Z" fill="#742823"/>
  <path d="M43.7676 26.4869C43.7676 26.4869 44.497 27.305 44.2886 27.5357C44.0802 27.7665 43.5592 27.0742 43.184 26.8435C42.8089 26.6128 41.8711 25.9625 41.8711 25.9625L43.7676 26.4869Z" fill="#742823"/>
  <path d="M38.8487 26.1303C38.8487 26.1303 39.3697 26.7596 39.9533 27.305C40.516 27.8504 40.7244 28.6685 41.0161 28.1231C41.3079 27.5777 40.7035 26.6967 40.7869 26.4449C40.9328 26.0044 41.7039 26.1722 42.9543 26.5918C44.6007 27.1372 45.0592 26.9064 44.9966 26.8015C44.7882 26.403 43.6837 26.1513 42.4958 25.501C41.3079 24.8507 39.9116 24.6829 39.1196 24.7458C39.1196 24.7668 38.8279 25.5429 38.8487 26.1303Z" fill="#A05544"/>
  <path d="M17.9023 13.2713C17.9023 13.2713 18.1941 18.6624 21.4452 21.746L25.9884 17.2779C25.9884 17.2779 24.9672 14.3411 23.0708 12.5371C20.0906 9.72613 17.9023 13.2713 17.9023 13.2713Z" fill="#46495D"/>
  <path d="M25.4887 16.4598C24.1966 17.6764 22.9253 18.8931 21.6332 20.1308C21.5499 20.1937 21.6749 20.3196 21.7374 20.2357C23.0295 19.019 24.3008 17.8023 25.5929 16.5647C25.6763 16.5017 25.5721 16.3968 25.4887 16.4598Z" fill="#D99A26"/>
  <path d="M23.2167 12.8308C23.1541 13.1874 22.8624 15.0124 22.5706 17.2989C22.4039 18.5366 22.258 19.9001 22.133 21.2426C22.133 21.3265 22.1121 21.4104 22.1121 21.4734C21.7995 24.9346 21.7162 28.1441 22.4664 28.3539L7.81559 30.074C7.81559 30.074 7.60718 28.4797 7.50298 26.0674C7.4613 25.1024 7.44046 24.0116 7.4613 22.8369C7.48214 21.6622 7.52382 20.4245 7.64886 19.1449C7.81559 17.2989 7.33626 15.0963 7.75307 13.3972C8.10735 11.9498 10.7958 11.0897 12.4213 10.2296C13.6926 9.55838 14.7971 9.11786 14.7971 9.11786C14.7971 9.11786 16.6519 9.64229 18.6109 10.3345C20.8825 11.1526 23.3417 12.1805 23.2167 12.8308Z" fill="#2C2F3F"/>
  <path d="M9.16891 34.8987C7.68924 34.0177 7.41831 29.8642 7.48083 26.0673C7.50168 24.9346 7.5642 23.8228 7.62672 22.8578C7.75176 20.7811 7.93932 19.2917 7.93932 19.2917L22.1317 21.2426C22.1317 21.2636 22.1317 21.3475 22.1317 21.4733C22.1317 22.5641 22.2567 27.284 24.1949 30.4306C27.0917 35.1294 11.2946 36.1783 9.16891 34.8987Z" fill="#2C2F3F"/>
  <path d="M12.4219 19.3337C12.8595 19.061 13.193 18.9141 13.714 18.096H15.152L15.673 23.4032H16.4232L16.5483 24.6618H13.318L13.193 23.4032H14.0057L13.6723 19.921L12.9012 20.3615L12.4219 19.3337Z" fill="#46495D"/>
  <path d="M16.5273 21.3475C16.3398 19.3546 17.1317 17.9702 18.4655 17.9702C20.0494 17.9702 20.9038 19.3337 21.1122 21.4104C21.3206 23.4871 20.6329 24.7667 19.1741 24.7667C17.8194 24.7877 16.7566 23.6759 16.5273 21.3475ZM19.4867 21.4314C19.3825 20.3196 18.9865 19.5015 18.5905 19.5015C18.2988 19.5015 17.9862 20.2147 18.1112 21.3684C18.2362 22.5851 18.6947 23.3403 19.0282 23.3403C19.4033 23.3403 19.6117 22.5641 19.4867 21.4314Z" fill="#46495D"/>
  <path d="M9.21345 18.159C8.65075 20.3826 8.40067 22.6691 8.33815 24.9556C8.27563 27.1792 8.42151 29.4237 8.81748 31.6263C9.00504 32.6752 9.25513 33.724 9.63025 34.7309C9.6511 34.8148 9.77614 34.7729 9.7553 34.689C9.06756 32.822 8.75496 30.8082 8.58823 28.8364C8.40067 26.5499 8.42151 24.2214 8.6716 21.9349C8.81748 20.6763 9.02588 19.4386 9.33849 18.201C9.35933 18.1171 9.23429 18.0751 9.21345 18.159Z" fill="#46495D"/>
  <path d="M21.9259 25.8995C19.4667 28.1231 16.3615 29.5915 13.0895 30.0739C12.1517 30.2208 11.1931 30.2627 10.2344 30.2417C10.151 30.2417 10.151 30.3676 10.2344 30.3676C13.5897 30.4515 16.945 29.5076 19.7793 27.7035C20.5712 27.2001 21.3215 26.6127 22.0092 25.9834C22.0718 25.9205 21.9884 25.8366 21.9259 25.8995Z" fill="#46495D"/>
  <path d="M15.0894 3.30718C15.0894 3.30718 14.4225 2.99252 14.5893 2.51005C14.756 2.02757 15.4646 2.30027 15.4646 2.30027C15.4646 2.30027 14.9644 0.810901 15.8188 0.643084C16.6733 0.475267 16.9859 1.14653 17.3194 1.06263C17.632 0.978718 18.4031 -0.216978 19.32 0.034747C20.2579 0.286472 19.5076 1.60803 20.0495 1.62901C20.5913 1.62901 21.4041 1.33533 21.9251 1.79682C22.4253 2.23734 22.4878 3.20229 21.8417 3.32815C21.1957 3.45402 22.3419 3.85258 22.0918 4.46092C21.8417 5.09023 20.5079 4.50287 20.5079 4.50287L15.0894 3.30718Z" fill="#2C2F3F"/>
  <path d="M13.9219 9.78907C13.9219 9.78907 15.3182 12.4951 17.7982 11.4253L17.8816 9.74712L17.9441 8.63533L17.9858 7.85918L15.3182 6.39078C15.0056 7.75429 14.5262 8.86608 13.9219 9.78907Z" fill="#A05544"/>
  <path d="M15.6289 7.69135C16.3792 9.64222 17.442 10.2086 17.8588 10.1876L17.9422 8.65629L15.6289 7.69135Z" fill="#2C2F3F"/>
  <path d="M15.2754 5.50981C15.2546 5.63567 15.2337 5.74055 15.2129 5.84544C15.1921 6.09717 15.1921 6.32791 15.2337 6.55866C15.2963 6.87332 15.4213 7.22993 15.6089 7.69143C15.9006 8.42562 16.5675 8.84517 17.297 9.03396C19.1934 9.55839 19.7144 8.29976 20.0896 6.28596C20.3188 5.02733 20.8398 4.43997 20.6731 3.89457C20.6523 3.87359 20.6523 3.83164 20.6314 3.81066C20.2771 3.18135 19.6519 2.71985 18.9642 2.51008C18.8391 2.46812 18.6933 2.44715 18.5682 2.40519C18.5474 2.40519 18.5057 2.38422 18.4849 2.38422C18.464 2.38422 18.464 2.38422 18.4432 2.38422C18.4015 2.38422 18.3807 2.36324 18.339 2.36324C18.3181 2.36324 18.2973 2.36324 18.2765 2.34226C18.2348 2.34226 18.1722 2.32129 18.1306 2.32129C16.5467 2.11151 15.9215 2.9506 15.6297 3.85261C15.4213 4.48193 15.3796 5.13222 15.2754 5.50981Z" fill="#A05544"/>
  <path d="M18.5068 5.59371C18.4651 5.6986 18.3817 5.76153 18.2983 5.71957C18.2148 5.6986 18.194 5.59371 18.2357 5.48883C18.2774 5.38394 18.3608 5.32101 18.4443 5.36296C18.5277 5.38394 18.5486 5.48883 18.5068 5.59371Z" fill="#2C2F3F"/>
  <path d="M19.7568 5.95031C19.7151 6.0552 19.6317 6.11813 19.5483 6.07617C19.4648 6.0552 19.444 5.95031 19.4857 5.84542C19.5274 5.74054 19.6108 5.67761 19.6943 5.71956C19.7568 5.76152 19.7777 5.8664 19.7568 5.95031Z" fill="#2C2F3F"/>
  <path d="M17.3184 5.88735C17.2976 5.99224 17.4434 6.1181 17.631 6.18103C17.8394 6.22298 18.027 6.18103 18.0478 6.07614C18.0686 5.97126 17.9228 5.8454 17.7352 5.78246C17.5268 5.74051 17.3392 5.78246 17.3184 5.88735Z" fill="#742823"/>
  <path d="M20.0064 6.81039C19.923 6.83137 19.8188 6.83137 19.6938 6.81039C19.4854 6.76844 19.3603 6.64258 19.3812 6.51671C19.402 6.41183 19.5896 6.36987 19.798 6.41183C19.9022 6.43281 20.0064 6.49574 20.0481 6.55867L20.0064 6.81039Z" fill="#742823"/>
  <path d="M18.5681 4.98539C18.4639 4.90148 18.2972 4.8805 18.193 5.00637C18.1304 5.09028 18.0471 5.13223 17.9637 5.0693C17.8804 5.02734 17.8387 4.90148 17.9012 4.83855C18.0888 4.56585 18.4639 4.50292 18.7348 4.69171C18.8182 4.75464 18.839 4.83855 18.7973 4.92246C18.7557 5.00637 18.6306 5.04832 18.5681 4.98539Z" fill="#2C2F3F"/>
  <path d="M19.922 5.48884C19.8595 5.342 19.7553 5.27907 19.6094 5.27907C19.3802 5.27907 19.3802 4.94343 19.6094 4.92245C19.8804 4.92245 20.1096 5.04832 20.2346 5.30004C20.318 5.50981 20.0262 5.67763 19.922 5.48884Z" fill="#2C2F3F"/>
  <path d="M18.694 6.45377C18.6732 6.4328 18.6523 6.41182 18.6523 6.36987C18.6523 6.32791 18.694 6.30693 18.7357 6.32791C18.8607 6.36987 18.9441 6.36987 19.0066 6.34889C18.8816 6.09716 18.9441 5.76153 18.9441 5.74055C18.9441 5.6986 18.9858 5.67762 19.0275 5.6986C19.0692 5.6986 19.09 5.74055 19.0692 5.78251C19.0692 5.78251 19.0066 6.16009 19.1525 6.36987C19.1734 6.39084 19.1734 6.41182 19.1525 6.4328C19.1525 6.45377 19.1317 6.47475 19.1108 6.47475C19.1317 6.45377 18.9441 6.53768 18.694 6.45377Z" fill="#2C2F3F"/>
  <path d="M15.8173 6.22305C15.5464 6.16012 15.338 6.01328 15.2129 5.84546C15.1921 6.09718 15.1921 6.32793 15.2337 6.55868C15.463 6.51673 15.6506 6.41184 15.8173 6.22305Z" fill="#2C2F3F"/>
  <path d="M16.0692 3.9575C16.7777 4.35606 16.5276 5.67762 16.9653 5.55176C17.4029 5.4259 17.2154 3.11842 18.2157 3.4121C19.1952 3.72675 19.0285 3.87359 19.487 4.04141C20.2581 4.29313 20.3414 3.89457 20.6957 3.89457C20.6749 3.87359 20.6749 3.83164 20.654 3.81066C20.2998 3.18135 19.6745 2.71985 18.9868 2.51008C18.8618 2.46812 18.7159 2.44715 18.5908 2.40519C18.57 2.40519 18.5283 2.38422 18.5075 2.38422C18.4866 2.38422 18.4866 2.38422 18.4658 2.38422C18.4241 2.38422 18.4033 2.36324 18.3616 2.36324C18.3408 2.36324 18.3199 2.36324 18.2991 2.34226C18.2574 2.34226 18.1949 2.32129 18.1532 2.32129C16.5693 2.11151 15.9441 2.9506 15.6523 3.85261C15.7565 3.85261 15.9024 3.87359 16.0692 3.9575Z" fill="#2C2F3F"/>
  <path d="M16.9646 5.55171C16.5269 5.67757 16.777 4.35601 16.0684 3.95745C15.9225 3.87354 15.7767 3.85256 15.6308 3.85256C15.4224 4.4609 15.3807 5.11119 15.2765 5.50975C15.2556 5.61464 15.2348 5.7405 15.214 5.84539C15.1306 4.96435 15.0264 3.95745 15.0681 3.53791C15.0681 3.454 15.0889 3.37009 15.1098 3.30716C15.1306 3.28618 15.1514 3.28618 15.1723 3.2652C15.2765 3.20227 15.3807 3.16032 15.4849 3.11836C15.6516 3.05543 15.8392 3.03445 16.0476 3.03445C16.6728 3.03445 17.3188 3.2652 17.7773 3.47498C17.2563 3.89452 17.3188 5.4678 16.9646 5.55171Z" fill="#742823"/>
  <path d="M16.692 5.09024C16.692 5.09024 16.4419 6.30691 15.7959 6.6845C15.1498 7.06209 15.2332 7.90117 15.5458 8.34169C15.8376 8.71928 16.7754 10.2926 18.3384 9.68423C19.5055 9.24371 19.9015 7.16697 19.9015 7.16697C19.9015 7.16697 18.7552 6.60059 17.7549 6.51668C17.213 6.47473 17.2339 6.64255 16.9838 6.62157C16.7129 6.60059 16.9421 6.30691 17.088 5.99226C17.2339 5.65662 17.1505 5.32099 17.1505 5.32099L16.692 5.09024Z" fill="#2C2F3F"/>
  <path d="M19.3213 7.20895C19.3213 7.20895 18.8837 7.04113 18.0292 6.72647C18.0292 6.72647 17.8417 7.69142 18.4877 7.85923C19.0296 8.00607 19.3213 7.20895 19.3213 7.20895Z" fill="#F4F0DE"/>
  <path d="M18.5072 8.21585C18.3405 8.23683 18.1946 8.19488 18.1112 8.04804C18.0695 7.9851 18.1737 7.90119 18.2154 7.9851C18.2779 8.08999 18.3821 8.08999 18.5072 8.08999C18.5906 8.08999 18.5906 8.21585 18.5072 8.21585Z" fill="#46495D"/>
  <path d="M16.5474 5.9083C16.735 5.6356 16.7558 5.27899 16.6516 4.94335C16.5058 4.52381 16.214 3.87352 15.7972 3.83157C15.172 3.76864 14.9844 4.27209 14.901 4.83847C14.8177 5.40485 15.0052 6.20198 15.7763 6.28589C16.1515 6.32784 16.4016 6.13905 16.5474 5.9083Z" fill="#A05544"/>
  <path d="M15.8601 5.63563C15.9435 5.40489 16.0268 5.17414 15.9851 4.94339C15.9643 4.73362 15.8184 4.39798 15.5475 4.39798C15.4641 4.39798 15.4225 4.27212 15.5267 4.25115C15.7767 4.23017 15.9851 4.43994 16.0685 4.67069C16.1936 5.00632 16.1102 5.36293 15.9851 5.67759C15.9643 5.7615 15.8393 5.71954 15.8601 5.63563Z" fill="#2C2F3F"/>
  <path d="M12.9828 11.5511C13.8789 12.2643 14.8584 12.9985 16.0046 13.2922C16.9841 13.544 18.0678 13.4391 18.8806 12.7888C18.9431 12.7468 18.8598 12.6629 18.7972 12.7049C17.9845 13.3342 16.8799 13.4181 15.9213 13.1454C14.8584 12.8517 13.9414 12.1595 13.087 11.4672C13.0036 11.4253 12.9202 11.5092 12.9828 11.5511Z" fill="#46495D"/>
  <path d="M5.31408 17.5087C5.31408 17.5087 1.41692 24.0116 1.37524 27.0323C1.33356 30.053 6.66871 38.8424 6.66871 38.8424L7.75241 38.2131C7.75241 38.2131 6.1477 27.8923 6.54367 27.3259C6.93964 26.7596 11.0869 18.7883 11.0869 18.7883L5.31408 17.5087Z" fill="#A05544"/>
  <path d="M6.48113 27.2841C5.91844 26.8855 5.29323 26.6757 4.6055 26.6128C4.50129 26.6128 4.50129 26.7596 4.6055 26.7806C5.25155 26.8226 5.85592 27.0533 6.39777 27.4309C6.48113 27.4938 6.5645 27.347 6.48113 27.2841Z" fill="#742823"/>
  <path d="M7.752 41.947C7.46024 41.9889 5.66796 41.947 5.12611 41.3596C4.58426 40.7722 5.02191 39.9751 5.10527 39.7024C5.18863 39.4297 5.70964 40.08 5.70964 40.08C5.70964 40.08 5.73048 39.7444 5.91805 39.3248C6.10561 38.9053 5.77216 37.9403 5.87636 37.4788C5.98057 36.9964 7.60612 36.8915 7.60612 36.8915C7.60612 36.8915 8.3147 39.3248 8.5231 40.08C8.56478 40.2059 8.56478 40.3317 8.5231 40.4366C8.43974 40.8352 8.18965 41.6952 7.752 41.947Z" fill="#A05544"/>
  <path d="M7.85565 40.8772C7.79313 41.2339 7.60557 41.5485 7.33464 41.8002C7.27212 41.8632 7.35548 41.9681 7.418 41.9051C7.73061 41.6324 7.91818 41.2758 7.9807 40.8772C8.02238 40.8143 7.87649 40.7933 7.85565 40.8772Z" fill="#742823"/>
  <path d="M7.37552 40.6255C7.29215 41.066 7.16711 41.5695 6.7503 41.8212C6.66694 41.8632 6.72946 42.01 6.81282 41.9471C7.27131 41.6534 7.4172 41.1499 7.5214 40.6255C7.54224 40.5416 7.39636 40.5206 7.37552 40.6255Z" fill="#742823"/>
  <path d="M6.69063 40.6254C6.64895 41.0659 6.41971 41.4435 6.02374 41.6743C5.94038 41.7162 6.0029 41.8631 6.08626 41.8001C6.52391 41.5484 6.79484 41.1289 6.83652 40.6464C6.83652 40.5415 6.69063 40.5205 6.69063 40.6254Z" fill="#742823"/>
  <path d="M5.625 40.038C5.625 40.3737 5.75004 40.6883 5.97929 40.9191C6.04181 40.982 6.16685 40.8981 6.08349 40.8352C5.87508 40.6254 5.75004 40.3737 5.75004 40.08C5.77088 39.9751 5.625 39.9541 5.625 40.038Z" fill="#742823"/>
  <path d="M5.72896 40.5835C5.70812 40.7514 5.58307 40.8772 5.41635 40.8982C5.33299 40.9192 5.35383 41.066 5.43719 41.045C5.66643 41.0031 5.83316 40.8353 5.87484 40.6045C5.87484 40.4996 5.72896 40.4787 5.72896 40.5835Z" fill="#742823"/>
  <path d="M8.46103 12.4322C8.46103 12.4322 6.43951 12.9776 4.35547 18.2219L10.1908 21.1797C10.1908 21.1797 11.6705 18.8302 12.3582 16.292C13.4419 12.3063 8.46103 12.4322 8.46103 12.4322Z" fill="#46495D"/>
  <path d="M4.77054 17.5716C6.68786 18.4736 8.60518 19.3966 10.5433 20.2986C10.6267 20.3406 10.7101 20.1937 10.6267 20.1518C8.70938 19.2498 6.79206 18.3268 4.8539 17.4248C4.7497 17.3828 4.66634 17.5296 4.77054 17.5716Z" fill="#D99A26"/>
  <path d="M34.9085 41.968C34.8043 42.912 33.533 45.5761 31.7824 48.8485C27.7811 56.3583 21.3622 67.0147 21.3622 67.0147L19.4657 66.0707C19.4657 66.0707 21.7165 55.0997 22.821 51.3238C23.2795 49.7505 24.0506 48.0723 24.8009 46.6249C26.0096 44.3174 27.1975 42.5344 27.1975 42.5344C23.2379 43.1007 12.4425 36.8705 9.19141 34.8987L23.2379 32.1507C23.217 32.1507 35.2419 38.8843 34.9085 41.968Z" fill="#A05544"/>
  <path d="M34.8022 41.7582C33.8644 42.1358 32.8432 42.1148 31.9263 41.7163C31.8221 41.6743 31.7804 41.8211 31.8846 41.8631C32.8224 42.2617 33.8853 42.2826 34.8439 41.9051C34.9481 41.8841 34.9064 41.7372 34.8022 41.7582Z" fill="#742823"/>
  <path d="M31.7815 48.8485C27.7802 56.3583 21.3613 67.0147 21.3613 67.0147L19.4648 66.0708C19.4648 66.0708 21.7156 55.0997 22.8202 51.3238C23.2786 49.7506 24.0497 48.0724 24.8 46.625C26.7173 46.2684 30.0726 47.9255 31.7815 48.8485Z" fill="#D9C4A0"/>
  <path d="M24.4649 47.6109C26.8198 47.8207 29.0915 48.6388 31.0505 49.9813C31.1547 50.0652 31.2589 49.8764 31.1547 49.7925C29.154 48.45 26.8407 47.6319 24.4649 47.4011C24.319 47.3802 24.319 47.5899 24.4649 47.6109Z" fill="#2C2F3F"/>
  <path d="M24.1133 48.5129C26.4683 48.7227 28.7399 49.5408 30.6989 50.8833C30.8031 50.9672 30.9073 50.7784 30.8031 50.6945C28.8024 49.352 26.4891 48.5339 24.1133 48.3031C23.9883 48.2821 23.9883 48.4919 24.1133 48.5129Z" fill="#2C2F3F"/>
  <path d="M19.7767 65.6931C19.7767 65.6931 19.4433 65.3994 19.2974 65.6931C19.1515 65.9868 18.8598 66.8468 18.8598 66.8468L17.7344 69.1333C18.6097 70.392 20.2769 70.371 20.6104 70.6437C21.3814 71.252 23.5072 72.2379 25.3203 72.8043C25.3203 72.8043 26.6332 71.6296 24.2991 69.9514C23.2779 69.2172 22.3609 67.7698 22.3609 67.1405C22.3609 66.5322 21.8816 65.9029 21.7566 65.9029C21.6315 65.9029 21.3606 66.721 20.9438 66.5112C20.4853 66.3014 19.7767 65.6931 19.7767 65.6931Z" fill="#2C2F3F"/>
  <path d="M20.465 70.1193C20.5901 69.7207 20.9027 69.4061 21.2987 69.2592C21.4029 69.2173 21.3612 69.0704 21.257 69.1124C20.7985 69.2802 20.465 69.6368 20.3192 70.0983C20.2775 70.1822 20.4442 70.2242 20.465 70.1193Z" fill="#D9C4A0"/>
  <path d="M20.9654 70.4129C21.0696 69.9934 21.3614 69.6368 21.7782 69.4899C21.8824 69.448 21.8407 69.3011 21.7365 69.3431C21.278 69.5109 20.9237 69.8885 20.7987 70.371C20.7778 70.4759 20.9446 70.5178 20.9654 70.4129Z" fill="#D9C4A0"/>
  <path d="M22.0711 69.5949C21.6542 69.7837 21.3833 70.1822 21.3416 70.6437C21.3208 70.7486 21.4875 70.7486 21.5084 70.6437C21.55 70.2452 21.8001 69.9095 22.1753 69.7417C22.2586 69.6788 22.1753 69.5529 22.0711 69.5949Z" fill="#D9C4A0"/>
  <path d="M17.6289 69.1753C17.6289 69.1753 18.2958 70.371 20.3798 70.6228C20.3798 70.6228 23.4434 72.5736 25.319 72.7834C25.319 72.7834 25.5483 72.6575 25.6108 72.3009C25.6108 72.3009 22.7973 71.2311 21.9637 70.7906C21.1301 70.3501 20.7133 70.1403 20.3173 69.9935C19.9214 69.8256 18.921 68.1055 18.275 68.0006C18.2958 67.9797 17.7748 68.8187 17.6289 69.1753Z" fill="#D9C4A0"/>
  <path d="M22.6326 37.5208C22.6326 37.5208 20.4027 47.7367 18.5479 52.4985C18.3812 52.939 18.2144 53.3166 18.0477 53.6522C16.1095 57.6169 9.85742 68.525 9.85742 68.525C9.04464 68.8187 8.48195 68.2942 7.96094 67.56C7.96094 67.56 10.2951 58.8965 10.7327 55.7919C10.9828 53.9039 11.6289 51.9111 12.0665 50.6105C12.3583 49.7714 12.5875 49.247 12.5875 49.247L13.9421 37.374L22.6326 37.5208Z" fill="#A05544"/>
  <path d="M19.1094 50.338C18.4425 50.338 17.7965 50.1911 17.1921 49.9184C17.1087 49.8765 17.0254 50.0233 17.1087 50.0652C17.7548 50.3589 18.4217 50.5058 19.1094 50.5058C19.2136 50.4848 19.2136 50.338 19.1094 50.338Z" fill="#742823"/>
  <path d="M18.5479 52.4985C18.3812 52.939 18.2144 53.3166 18.0477 53.6523C16.1095 57.6169 9.85742 68.525 9.85742 68.525C9.04464 68.8187 8.48195 68.2943 7.96094 67.5601C7.96094 67.5601 10.2951 58.8966 10.7327 55.7919C10.9828 53.904 11.6289 51.9112 12.0665 50.6106C14.2964 50.4008 17.1307 51.7224 18.5479 52.4985Z" fill="#D9C4A0"/>
  <path d="M11.8983 51.4496C14.0448 51.7642 16.108 52.4565 18.0045 53.5053C18.1295 53.5683 18.2337 53.3795 18.1087 53.3165C16.1914 52.2677 14.1073 51.5545 11.9608 51.2398C11.8149 51.2188 11.7732 51.4286 11.8983 51.4496Z" fill="#2C2F3F"/>
  <path d="M11.6302 52.3097C13.7351 52.6244 15.7774 53.2747 17.6531 54.2816C17.7781 54.3445 17.8823 54.1557 17.7573 54.0928C15.8608 53.0859 13.7976 52.4146 11.6719 52.1C11.5468 52.1 11.5051 52.3097 11.6302 52.3097Z" fill="#2C2F3F"/>
  <path d="M8.08757 67.1825C8.08757 67.1825 7.10807 67.5181 7.19143 68.2104C7.27479 68.8816 5.79512 70.392 5.8368 70.8745C5.87848 71.3779 9.06707 73.182 9.06707 73.182H13.8812C13.8812 73.182 13.7562 72.238 12.4015 71.5457C11.0469 70.8535 10.5884 70.8954 10.4217 70.1822C10.255 69.469 10.6301 67.7908 10.2758 67.644C9.92153 67.4972 9.81732 68.4201 9.37968 68.2733C8.96287 68.1474 8.08757 67.1825 8.08757 67.1825Z" fill="#2C2F3F"/>
  <path d="M8.08689 71.9024C8.21193 71.5039 8.52454 71.1892 8.92051 71.0424C9.02471 71.0004 8.98303 70.8536 8.87882 70.8955C8.42033 71.0633 8.08689 71.4199 7.941 71.8814C7.89932 71.9653 8.04521 72.0073 8.08689 71.9024Z" fill="#D9C4A0"/>
  <path d="M8.58672 72.1961C8.69092 71.7765 8.98269 71.4199 9.39949 71.2731C9.5037 71.2311 9.46202 71.0843 9.35781 71.1262C8.89932 71.2941 8.54504 71.6716 8.41999 72.1541C8.39915 72.259 8.54504 72.301 8.58672 72.1961Z" fill="#D9C4A0"/>
  <path d="M9.69215 71.3779C9.27534 71.5667 9.00442 71.9653 8.96274 72.4268C8.9419 72.5316 9.10862 72.5316 9.12946 72.4268C9.17114 72.0282 9.42123 71.6926 9.79635 71.5247C9.87972 71.4618 9.79635 71.3359 9.69215 71.3779Z" fill="#D9C4A0"/>
  <path d="M6.2712 69.9724C6.2712 69.9724 6.75053 70.0563 7.02146 70.6436C7.29238 71.231 7.95928 71.8813 8.60533 72.1749C9.25138 72.4686 13.482 72.4057 13.482 72.4057C13.8154 72.6574 13.9405 72.9092 13.878 73.1819H8.83458C8.83458 73.1819 6.18784 71.7135 5.89608 71.189C5.60431 70.6646 5.83355 70.1611 6.2712 69.9724Z" fill="#D9C4A0"/>
  <path d="M22.3207 40.7933L20.716 48.0094C17.6733 47.7367 14.5264 46.9186 11.2753 45.681L9.75391 34.689L22.3207 40.7933Z" fill="#EFBF46"/>
  <path d="M11.2537 44.5692C14.3381 45.7649 17.5059 46.6879 20.757 47.2752C20.882 47.2962 20.9445 47.1074 20.8195 47.0655C17.5684 46.4781 14.3798 45.5551 11.3162 44.3594C11.1704 44.3175 11.1287 44.5063 11.2537 44.5692Z" fill="#2C2F3F"/>
  <path d="M11.1927 37.1013C11.1927 37.1013 16.5904 40.4157 22.8217 42.5344L30.3659 36.7447L24.5515 31.6682C24.5515 31.6682 7.4623 34.3113 11.1927 37.1013Z" fill="#EFBF46"/>
  <path d="M12.3373 37.7726C12.3373 37.7726 9.04451 36.3251 8.33594 33.8079C18.3602 31.6682 24.258 31.0179 24.1955 30.4306L30.3643 36.7447L12.3373 37.7726Z" fill="#EFBF46"/>
  <path d="M10.5863 33.6611C13.5248 36.1783 16.7759 38.276 20.2771 39.8913C21.2566 40.3318 22.257 40.7513 23.2782 41.1289C23.4032 41.1709 23.4657 40.9821 23.3407 40.9191C19.777 39.5976 16.4217 37.8145 13.3581 35.591C12.462 34.9407 11.5867 34.2484 10.7531 33.5352C10.628 33.4093 10.4821 33.5562 10.5863 33.6611Z" fill="#2C2F3F"/>
  <path d="M11.8793 33.1157C14.7136 35.5281 17.7771 37.6467 21.1533 39.199C22.112 39.6396 23.0915 40.0381 24.0918 40.4157C24.2168 40.4577 24.2794 40.2689 24.1543 40.2059C20.7365 38.9263 17.5271 37.1852 14.5886 35.0036C13.7133 34.3533 12.8796 33.6611 12.046 32.9479C11.921 32.8849 11.7751 33.0318 11.8793 33.1157Z" fill="#2C2F3F"/>
  <path d="M29.4481 36.1783C26.9889 38.1502 24.4672 40.0591 21.883 41.9051C21.7788 41.989 21.883 42.1568 21.9872 42.0938C24.5714 40.2479 27.0931 38.318 29.594 36.3461C29.6982 36.2412 29.5523 36.0944 29.4481 36.1783Z" fill="#2C2F3F"/>
  <path d="M30.5735 32.2976C30.5527 32.4234 30.5318 32.5283 30.511 32.6542C30.4068 33.5142 30.5735 34.3743 30.9486 35.1085C31.428 36.0734 32.2616 36.8496 33.3244 37.2482C33.5328 37.3321 33.7621 37.395 33.9705 37.437C34.5749 37.5628 35.1584 37.5418 35.7211 37.416C36.5339 37.2482 37.2633 36.8496 37.8468 36.2622C38.4512 35.6749 38.8888 34.8987 39.0764 33.9967C39.1181 33.766 39.1598 33.5142 39.1598 33.2835C39.1806 32.9478 39.1389 32.6122 39.0764 32.2766C38.8263 30.976 37.9719 29.8642 36.8048 29.2559C36.4505 29.0881 36.0754 28.9412 35.6794 28.8573C35.4293 28.8154 35.1792 28.7734 34.95 28.7734C33.8246 28.7524 32.7826 29.151 31.9698 29.8642C31.2821 30.4935 30.7819 31.3116 30.5735 32.2976Z" fill="#D9C4A0"/>
  <path d="M33.6978 38.1292C34.844 38.4228 36.0319 38.255 37.0531 37.6677C37.1365 37.6257 37.0531 37.4789 36.9697 37.5208C35.9902 38.0872 34.844 38.234 33.7395 37.9613C33.6561 37.9404 33.6144 38.1082 33.6978 38.1292Z" fill="#2C2F3F"/>
  <path d="M35.9083 30.7662L37.513 32.5283L36.3668 34.605L34.0535 34.1435L33.7617 31.7731L35.9083 30.7662Z" fill="#2C2F3F"/>
  <path d="M30.5742 32.2976C30.5534 32.4234 30.5326 32.5283 30.5117 32.6542L30.6576 32.7591L32.4707 31.2487L31.9289 29.8852C31.2828 30.4935 30.7826 31.3117 30.5742 32.2976Z" fill="#2C2F3F"/>
  <path d="M38.7852 32.5704L39.1606 33.2836C39.1814 32.9479 39.1397 32.6123 39.0772 32.2767L38.7852 32.5704Z" fill="#2C2F3F"/>
  <path d="M34.9297 28.7944L36.0134 29.7384L36.8053 29.2559C36.451 29.0881 36.0759 28.9412 35.6799 28.8573C35.4299 28.8154 35.1798 28.7944 34.9297 28.7944Z" fill="#2C2F3F"/>
  <path d="M30.9492 35.1085C31.4285 36.0735 32.2622 36.8496 33.325 37.2482L32.8874 35.2973L30.9492 35.1085Z" fill="#2C2F3F"/>
  <path d="M35.7422 37.416C36.555 37.2482 37.2844 36.8496 37.8679 36.2623L36.7842 35.9266L35.7422 37.416Z" fill="#2C2F3F"/>
  <path d="M36.3447 34.3114C36.5114 34.8987 36.6781 35.4861 36.8449 36.0734C36.8657 36.1783 36.7198 36.2203 36.699 36.1154C36.5323 35.528 36.3655 34.9407 36.1988 34.3533C36.1571 34.2484 36.303 34.2065 36.3447 34.3114Z" fill="#2C2F3F"/>
  <path d="M37.3678 32.4443C37.8888 32.4863 38.4098 32.5073 38.9308 32.5492C39.035 32.5492 38.9934 32.717 38.91 32.717C38.389 32.6751 37.868 32.6541 37.347 32.6122C37.2428 32.6122 37.2844 32.4443 37.3678 32.4443Z" fill="#2C2F3F"/>
  <path d="M36.098 29.5496C36.0563 30.074 35.9937 30.5775 35.952 31.1019C35.952 31.2068 35.7852 31.1648 35.7852 31.0809C35.8269 30.5565 35.8894 30.053 35.9312 29.5286C35.952 29.4237 36.098 29.4447 36.098 29.5496Z" fill="#2C2F3F"/>
  <path d="M32.0933 31.0598C32.7601 31.2906 33.427 31.5213 34.1148 31.7521C34.219 31.794 34.1773 31.9409 34.0939 31.9199C33.427 31.6892 32.7601 31.4584 32.0724 31.2277C31.9682 31.1857 31.9891 31.0179 32.0933 31.0598Z" fill="#2C2F3F"/>
  <path d="M34.1999 34.0178C33.6997 34.4793 33.2412 34.9618 32.7827 35.4652C32.7202 35.5491 32.5951 35.4442 32.6577 35.3603C33.1162 34.8569 33.5746 34.3744 34.0748 33.9129C34.1582 33.85 34.2832 33.9549 34.1999 34.0178Z" fill="#2C2F3F"/>
</svg>