<svg xmlns="http://www.w3.org/2000/svg" width="30" height="30" viewBox="0 0 30 30" fill="none">
  <path d="M11.856 4.17076C11.7395 3.58689 11.6462 3.05732 11.6928 2.5006C11.8327 1.0477 12.6601 0.124357 13.9187 0.0157289C14.3964 -0.0250067 14.8626 0.0157305 15.3404 0.11078C15.8648 0.219409 16.226 0.572448 16.4358 1.15633C16.6922 1.84883 16.7388 2.58207 16.7155 3.32889C16.6922 4.03498 16.6572 4.75464 16.5057 5.44715C16.4591 5.65082 16.5407 5.67798 16.6689 5.70514C17.135 5.82734 17.5895 5.94955 18.0556 6.07176C18.277 6.12607 18.4751 6.2347 18.5917 6.47912C18.6616 6.62848 18.7665 6.62848 18.8714 6.66921C19.7221 6.95436 20.5145 7.36172 21.1671 8.06781C21.54 8.47516 21.7847 8.95041 21.6565 9.57502C21.5983 9.86017 21.5167 10.1453 21.3885 10.3897C21.2254 10.7156 21.272 10.8242 21.5866 10.9057C23.0666 11.2723 24.5466 11.5303 26.0615 11.5846C26.551 11.5982 27.0521 11.6254 27.5415 11.734C27.7396 11.7747 27.9261 11.8426 28.1009 11.9648C28.2757 12.0871 28.3922 12.2636 28.4039 12.4944C28.4272 12.8746 28.2757 13.2277 28.3806 13.635C28.4272 13.8251 28.2291 13.9609 28.0426 14.0016C27.6348 14.0831 27.3667 14.3682 27.2036 14.7892C27.087 15.1015 26.8773 15.2101 26.6326 15.0608C26.5626 15.02 26.516 14.9521 26.4111 14.9793C25.7353 15.183 25.036 15.2101 24.3718 15.441C24.2203 15.4953 24.0805 15.5632 23.929 15.6311C23.7891 15.6989 23.6959 15.7668 23.6842 15.9977C23.6609 16.3643 23.323 16.4865 23.0666 16.2692C23.0083 16.2149 22.9734 16.1199 22.8685 16.1199C22.1693 16.1606 21.8547 15.6582 21.6565 14.9793C21.505 14.4633 21.5167 14.4905 21.0273 14.5176C19.8619 14.5855 18.6966 14.7756 17.5312 14.6398C17.2748 14.6127 17.0185 14.5583 16.8087 14.3818C16.564 14.1782 16.3659 14.2325 16.1212 14.3682C15.8415 14.5312 15.5385 14.6398 15.2355 14.7484C15.084 14.8028 15.0257 14.8299 15.0956 15.0472C15.2355 15.4138 15.1306 15.6311 14.7927 15.7261C14.2216 15.889 13.6623 16.1063 13.1029 16.3371C12.9165 16.4186 12.8116 16.5001 12.9398 16.7445C12.998 16.8531 13.0097 16.9753 13.0563 17.084C13.6856 18.5097 13.6856 20.112 14.0119 21.6192C14.1051 22.0537 14.1867 22.5018 14.21 22.9635C14.2799 24.5114 13.6856 25.5298 12.4387 26.0594C11.553 26.426 10.6557 26.3309 9.74672 26.2495C8.86106 26.168 7.98705 26.1273 7.08973 26.1544C6.75178 26.168 6.50706 26.3174 6.2973 26.6025C6.05257 26.9148 5.88942 27.295 5.73793 27.6616C5.53982 28.1233 5.35337 28.585 5.09699 29.0059C4.82896 29.4133 4.52597 29.7527 4.09479 29.9293C3.71023 30.0786 3.45385 29.9971 3.20913 29.6305C3.13921 29.5355 3.06929 29.4947 2.98772 29.4676C2.69638 29.3454 2.62646 29.0059 2.82457 28.7343C3.01102 28.4899 3.02268 28.1097 2.83622 27.8382C2.67307 27.5937 2.70803 27.295 2.9411 27.1592C3.0926 27.0778 3.12756 26.9556 3.16252 26.8062C3.32567 26.1952 3.50047 25.5977 3.66362 24.9867C3.7685 24.6065 3.7918 24.2127 3.7918 23.8189C3.7918 23.656 3.78015 23.5338 3.67527 23.3844C3.46551 23.0992 3.60535 22.7326 3.91999 22.6783C4.01322 22.6647 4.09479 22.6376 4.17637 22.5697C4.74739 22.0944 5.4699 22.0809 6.02927 22.5561C6.19241 22.6919 6.34391 22.7055 6.54202 22.7055C7.73067 22.719 8.79113 22.1216 9.92152 21.7821C9.80498 21.4698 9.6768 21.1575 9.63018 20.8316C9.60688 20.6687 9.54861 20.6687 9.43207 20.7502C9.03586 20.9946 8.82609 20.8588 8.75617 20.3428C8.54641 18.8356 8.23177 17.3691 7.73067 15.9569C7.35776 14.9385 7.34611 13.8794 7.6491 12.8339C7.68406 12.7252 7.70736 12.6438 7.66075 12.5216C7.35776 11.7069 7.56752 10.9057 8.20846 10.4712C8.35996 10.3626 8.44153 10.2268 8.48814 10.0503C8.63964 9.57502 8.76783 9.07262 8.87271 8.52948C8.06862 8.67884 7.27619 8.50232 6.50706 8.90967C5.6214 9.38492 4.70077 9.76512 3.7918 10.1861C3.67527 10.2404 3.55873 10.2811 3.51212 10.4441C3.30236 11.1773 2.82457 11.5575 2.23024 11.8019C1.99717 11.897 1.75245 11.9784 1.49607 12.0327C0.936708 12.1685 0.70364 12.0599 0.423957 11.4896C0.144274 10.9329 -0.0305276 10.3354 0.00443272 9.67007C0.0277396 9.2084 0.214195 8.85536 0.528838 8.59737C0.715293 8.43443 0.925055 8.31222 1.14647 8.23075C1.85733 7.97275 2.49827 7.55182 3.10425 7.06299C4.00157 6.34333 4.95715 5.80019 6.06423 5.70514C6.11084 5.70514 6.18076 5.70514 6.21572 5.6644C6.87997 4.98548 7.75398 4.93116 8.54641 4.65959C9.61853 4.23866 10.7023 4.04856 11.856 4.17076Z" fill="black"/>
  <path d="M26.9714 10.4714C25.3049 10.4714 23.9648 8.88271 23.9531 6.91382C23.9531 5.01283 25.3166 3.43771 26.9597 3.43771C28.6611 3.45129 29.9896 4.99924 30.0013 6.95455C30.0013 8.86913 28.6145 10.4714 26.9714 10.4714Z" fill="black"/>
  <path d="M14.3859 11.0418C13.8848 12.2639 13.9547 13.486 14.2344 14.7216C14.2693 14.8846 14.246 14.9253 14.1178 14.966C13.1389 15.2648 12.23 15.7672 11.286 16.2017C10.8082 16.4189 10.3071 16.5819 9.78274 16.5819C9.52637 16.5819 9.33991 16.7177 9.35157 17.0436C9.36322 17.3559 9.54967 17.4645 9.80605 17.4645C10.5402 17.4509 11.2161 17.2065 11.8687 16.867C12.0785 16.7584 12.1717 16.772 12.2533 17.0571C12.3698 17.4916 12.533 17.899 12.6728 18.3199C12.7078 18.415 12.7777 18.5372 12.5912 18.5508C11.4725 18.5915 10.4353 18.931 9.4681 19.6371C9.37487 19.0939 9.28164 18.5915 9.18842 18.0891C9.01361 17.1929 8.71062 16.3375 8.43094 15.482C8.12795 14.5587 8.15126 13.6353 8.48921 12.7256C8.55913 12.5219 8.66401 12.3997 8.85047 12.3182C10.5635 11.5578 12.3348 11.1097 14.1644 11.0283C14.2227 11.0418 14.2926 11.0418 14.3859 11.0418Z" fill="#FEFEFE"/>
  <path d="M14.6065 8.61098C14.4201 9.18128 14.1404 9.62937 13.9073 10.1182C13.8607 10.2132 13.7791 10.1725 13.7092 10.1861C11.227 10.4984 10.924 10.5934 8.33697 11.6254C8.32532 11.4082 8.41854 11.286 8.57004 11.1909C8.90799 11.0008 9.09445 10.6749 9.22263 10.2811C9.39744 9.75158 9.52562 9.20844 9.64216 8.6653C9.67712 8.4752 9.73538 8.40731 9.91019 8.40731C10.2481 8.39373 10.4229 8.23078 10.4113 7.95921C10.3996 7.67406 10.2015 7.51112 9.85192 7.53828C9.14106 7.57901 8.41855 7.61975 7.70769 7.67406C7.54454 7.68764 7.46296 7.63333 7.40469 7.45681C7.28816 7.06303 7.15997 6.68283 7.03178 6.28905C6.98517 6.16685 6.98517 6.05822 7.12501 6.01748C8.54673 5.5015 9.9568 5.01267 11.4718 5.02625C11.798 5.02625 11.9029 5.13488 11.8913 5.51508C11.8563 6.51989 12.2292 7.36176 12.7653 8.12216C13.1498 8.67888 13.6509 8.88255 14.2569 8.70603C14.3385 8.67887 14.4434 8.65172 14.6065 8.61098Z" fill="white"/>
  <path d="M18.7096 13.73C18.4066 13.7707 17.987 13.7843 17.5675 13.7028C16.7984 13.5534 16.5187 12.9831 16.7867 12.1277C16.88 11.8425 17.0082 11.5981 17.1713 11.3809C17.5442 10.8513 17.9754 10.6476 18.593 10.8513C19.8283 11.2587 21.0636 11.7068 22.3454 11.9647C22.5902 12.0191 22.8349 12.087 23.0913 12.1141C23.3243 12.1413 23.336 12.2635 23.2777 12.4807C23.1961 12.8202 22.9864 13.0103 22.7183 13.1325C22.0308 13.472 21.2966 13.5534 20.5625 13.6078C19.9798 13.6621 19.3971 13.6892 18.7096 13.73Z" fill="#FEFEFE"/>
  <path d="M10.6328 25.3533C9.36254 25.2854 8.09231 25.1225 6.82209 25.2447C6.67059 25.2583 6.61233 25.1904 6.57737 25.041C6.50745 24.7966 6.47249 24.5386 6.46083 24.2806C6.43753 23.6288 6.50745 23.5338 7.06681 23.493C7.89421 23.4252 8.66333 23.1128 9.44411 22.8141C9.61892 22.7462 9.80537 22.6919 9.99183 22.624C10.6444 22.4203 10.9008 22.6376 11.2854 23.3165C11.6 23.8597 11.6466 24.5114 11.635 25.1632C11.635 25.3126 11.5884 25.3533 11.4718 25.3533C11.1805 25.3397 10.9008 25.3533 10.6328 25.3533Z" fill="#FEFEFE"/>
  <path d="M0.774527 9.88738C0.762874 9.53434 0.844448 9.34424 1.0309 9.20846C1.06586 9.1813 1.10082 9.15414 1.13578 9.14056C2.30113 8.71963 3.29167 7.87776 4.32883 7.17167C4.85323 6.80505 5.43591 6.60137 6.05354 6.5199C6.22834 6.49274 6.29826 6.54706 6.35653 6.72358C6.4381 7.00873 6.51968 7.30746 6.63621 7.57903C6.71779 7.78271 6.65952 7.8506 6.49637 7.91849C5.51748 8.36659 4.55024 8.84183 3.57135 9.27635C3.19844 9.43929 2.91876 9.6837 2.79057 10.159C2.63908 10.6749 2.24286 10.8379 1.84664 10.9737C1.15909 11.2181 1.07752 11.1638 0.867755 10.3355C0.809488 10.159 0.786181 9.98243 0.774527 9.88738Z" fill="#FEFEFE"/>
  <path d="M12.3792 25.0275C12.3792 24.6066 12.3326 24.2128 12.2511 23.8326C12.0879 23.0179 11.7383 22.3661 11.1323 21.9044C10.6778 21.5514 10.4331 21.0354 10.3515 20.4108C10.3166 20.1799 10.3515 20.0442 10.573 19.9355C11.2256 19.6368 11.8898 19.4467 12.589 19.4195C12.7755 19.406 12.8687 19.4467 12.9036 19.6911C13.0668 20.6959 13.2649 21.6872 13.4164 22.6784C13.5912 23.819 13.2183 24.6337 12.3792 25.0275Z" fill="#FEFEFE"/>
  <path d="M24.3835 12.3039C25.2225 12.4532 26.1548 12.4261 27.0754 12.5211C27.2502 12.5347 27.5066 12.5076 27.5649 12.6841C27.6231 12.8742 27.4483 13.0779 27.3318 13.2408C26.9006 13.879 26.2946 14.0962 25.6537 14.2049C24.768 14.3407 23.8824 14.5036 23.1016 15.0739C22.9384 15.1961 22.717 15.2912 22.5422 15.0875C22.3558 14.8838 22.3092 14.5987 22.2975 14.3135C22.2859 14.1506 22.4374 14.1913 22.5189 14.1641C22.9035 14.0284 23.2647 13.8383 23.5677 13.5259C23.8125 13.268 23.9756 12.9421 24.0339 12.5483C24.0688 12.2903 24.0688 12.2903 24.3835 12.3039Z" fill="white"/>
  <path d="M15.9358 3.64114C15.9008 4.15712 15.8775 4.75458 15.726 5.3113C15.5279 6.05812 15.155 6.30253 14.5024 6.13959C14.1528 6.05812 13.8615 5.86802 13.5468 5.67792C13.1506 5.43351 13.0457 5.05331 13.0923 4.57806C13.1273 4.27933 13.1622 3.96702 13.1972 3.66829C13.2322 3.35599 13.3487 3.36957 13.5235 3.54609C13.5468 3.57324 13.5701 3.6004 13.5934 3.61398C13.9547 3.9806 14.1878 3.91271 14.3509 3.36957C14.3975 3.20662 14.4674 3.05726 14.5374 2.9079C14.6422 2.67706 14.817 2.58201 15.0385 2.6499C15.1666 2.69064 15.2948 2.74495 15.4347 2.78569C15.5978 2.82642 15.8309 2.78569 15.9008 2.89432C16.0173 3.05726 15.9358 3.34241 15.9358 3.64114Z" fill="#FEFEFE"/>
  <path d="M3.71087 28.2047C3.71087 27.5666 3.87402 26.9827 4.06048 26.3852C4.34016 25.4755 4.59653 24.5521 4.56157 23.5609C4.54992 23.235 4.70142 23.0721 4.96944 23.0313C5.27243 22.9906 5.69196 23.1671 5.75023 23.3708C5.77353 23.4387 5.75023 23.5337 5.72692 23.6152C5.62204 24.2398 5.68031 24.8373 5.86676 25.4211C5.91337 25.5569 5.94833 25.652 5.8318 25.7742C5.45889 26.1951 5.23747 26.7111 5.01606 27.2407C4.8063 27.7295 4.61984 28.2455 4.28189 28.6393C4.1537 28.7886 3.99056 29.0059 3.85071 28.9516C3.68757 28.8972 3.72253 28.5985 3.69922 28.3948C3.69922 28.3541 3.71087 28.2862 3.71087 28.2047Z" fill="white"/>
  <path d="M16.3082 9.30347C16.2733 8.92327 16.3548 8.73317 16.6928 8.73317C17.0424 8.74675 17.3803 8.67885 17.73 8.63812C17.8465 8.62454 17.9397 8.6517 18.0329 8.70601C18.5224 8.95042 19.0468 9.0319 19.5595 9.11337C19.8043 9.14052 19.9907 9.04548 20.014 8.74675C20.049 8.43444 19.8975 8.2715 19.6295 8.24434C19.2682 8.20361 18.9186 8.13571 18.5807 8.0135C18.4874 7.97277 18.3592 7.95919 18.4292 7.76909C18.4758 7.63331 18.4758 7.44321 18.6855 7.5111C19.4314 7.75551 20.1189 8.14929 20.6899 8.7739C20.9113 9.01832 20.958 9.27631 20.8298 9.60219C20.7132 9.90092 20.6666 10.3219 20.4685 10.4712C20.2587 10.6206 19.9441 10.3626 19.6761 10.2811C18.6389 9.94166 17.6018 9.65651 16.5063 9.77871C16.1684 9.83303 16.3782 9.42567 16.3082 9.30347Z" fill="#FEFEFE"/>
  <path d="M15.8305 1.98463C15.6208 1.91674 15.446 1.87601 15.2828 1.82169C14.6885 1.63159 14.234 1.82169 13.896 2.43273C13.8028 2.59567 13.7445 2.66356 13.5581 2.59567C13.057 2.40557 12.719 2.69072 12.4743 3.22028C12.2879 1.86243 12.9055 0.952665 14.0242 0.898351C14.3389 0.884773 14.6535 0.884775 14.9682 0.939089C15.5741 1.04772 15.7023 1.1835 15.8305 1.98463Z" fill="#FEFEFE"/>
  <path d="M16.6561 10.6752C16.2716 11.2047 16.0268 11.7343 15.9336 12.3589C15.8986 12.6033 15.8753 12.8478 15.9453 13.0922C16.0268 13.3637 15.9453 13.4859 15.7238 13.5674C15.5141 13.6353 15.3043 13.7304 15.1062 13.839C14.8964 13.9476 14.7916 13.9205 14.7683 13.6217C14.7216 12.8478 14.745 12.1009 15.0712 11.4084C15.1994 11.1369 15.3626 10.9603 15.6423 10.906C15.9686 10.8246 16.2716 10.7023 16.6561 10.6752Z" fill="#FEFEFE"/>
  <path d="M15.1094 8.21716C15.4124 7.83696 15.5988 7.44318 15.692 6.98151C15.7503 6.64205 16.0766 6.42479 16.3679 6.50626C16.8108 6.62847 17.242 6.75067 17.6848 6.8593C17.8363 6.90004 17.9179 6.94077 17.8246 7.14445C17.7664 7.28024 17.7314 7.41602 17.6964 7.55181C17.6615 7.74191 17.5566 7.79622 17.4051 7.8098C17.0672 7.82338 16.7409 7.86411 16.4029 7.89127C16.2048 7.90485 15.995 7.94559 15.8902 8.10853C15.6571 8.44799 15.4124 8.33936 15.1094 8.21716Z" fill="#FEFEFE"/>
  <path d="M14.8626 7.07651C14.6645 7.5925 14.3382 7.80975 13.907 7.86407C13.5224 7.91838 13.336 7.60608 13.1612 7.30735C12.9631 6.95431 12.7533 6.60126 12.6484 6.04454C13.033 6.34327 13.336 6.60126 13.6856 6.77779C14.0585 6.95431 14.4314 7.06293 14.8626 7.07651Z" fill="#FDFDFD"/>
  <path d="M15.0495 10.1456C14.863 10.1456 14.7814 10.1185 14.8747 9.94195C14.9796 9.75185 15.0728 9.54817 15.166 9.33091C15.2243 9.18155 15.3175 9.19513 15.4224 9.20871C15.5506 9.22228 15.5389 9.31733 15.5389 9.41238C15.5389 9.43954 15.5389 9.4667 15.5389 9.48028C15.5273 9.64322 15.6671 9.87405 15.5506 9.95553C15.3991 10.0913 15.1777 10.1049 15.0495 10.1456Z" fill="#FAFAFA"/>
  <path d="M27.1101 9.5618C27.2266 9.26307 27.1684 9.07297 26.9236 8.95077C26.877 8.92361 26.8304 8.89645 26.7955 8.85572C26.3992 8.4212 25.9331 8.35331 25.432 8.57057C25.2456 8.65204 25.164 8.55699 25.0824 8.40763C24.593 7.5386 24.5813 6.41158 25.0824 5.52897C25.5952 4.63279 26.4808 4.14396 27.3665 4.36122C28.2988 4.59205 28.9047 5.2574 29.1611 6.34369C29.2077 6.53378 29.1844 6.68315 29.0213 6.76462C28.998 6.7782 28.9863 6.79178 28.963 6.80535C28.1939 7.41639 28.1706 7.48428 28.054 8.57057C28.0191 8.92361 28.2871 8.8014 28.4036 8.91003C28.1706 9.27665 27.6695 9.54822 27.1101 9.5618Z" fill="#FEFEFE"/>
  <path d="M27.5538 6.56054C27.6004 6.73706 27.5304 6.87284 27.344 6.92716C27.309 6.94074 27.2741 6.9679 27.2275 6.98147C26.1903 7.51104 26.1903 7.51103 25.4911 6.46549C25.4095 6.34328 25.3979 6.24823 25.4678 6.11244C25.6426 5.80014 25.8174 5.47426 25.9805 5.14837C26.0621 4.99901 26.1437 4.95827 26.2952 4.99901C26.5865 5.0669 26.8895 5.13479 27.1925 5.18911C27.379 5.21626 27.4372 5.32489 27.4489 5.52857C27.4838 5.85445 27.5188 6.18034 27.5538 6.56054Z" fill="black"/>
</svg>