<svg xmlns="http://www.w3.org/2000/svg" width="24" height="24" viewBox="0 0 24 24" fill="none">
  <circle cx="12" cy="12" r="12" fill="#F1F1F1" fill-opacity="0.972549"/>
  <path d="M11.2792 13.5542L10.2 14.6333C9.9725 14.8608 9.61083 14.8608 9.3775 14.6392C9.31333 14.575 9.24917 14.5167 9.185 14.4525C8.58417 13.8458 8.04167 13.21 7.5575 12.545C7.07917 11.88 6.69417 11.215 6.41417 10.5558C6.14 9.89083 6 9.255 6 8.64833C6 8.25167 6.07 7.8725 6.21 7.5225C6.35 7.16667 6.57167 6.84 6.88083 6.54833C7.25417 6.18083 7.6625 6 8.09417 6C8.2575 6 8.42083 6.035 8.56667 6.105C8.71833 6.175 8.8525 6.28 8.9575 6.43167L10.3108 8.33917C10.4158 8.485 10.4917 8.61917 10.5442 8.7475C10.5967 8.87 10.6258 8.9925 10.6258 9.10333C10.6258 9.24333 10.585 9.38333 10.5033 9.5175C10.4275 9.65167 10.3167 9.79167 10.1767 9.93167L9.73333 10.3925C9.66917 10.4567 9.64 10.5325 9.64 10.6258C9.64 10.6725 9.64583 10.7133 9.6575 10.76C9.675 10.8067 9.6925 10.8417 9.70417 10.8767C9.80917 11.0692 9.99 11.32 10.2467 11.6233C10.5092 11.9267 10.7892 12.2358 11.0925 12.545C11.1508 12.6033 11.215 12.6617 11.2733 12.72C11.5067 12.9475 11.5125 13.3208 11.2792 13.5542Z" fill="black"/>
  <path d="M17.6494 15.5259C17.6494 15.6893 17.6203 15.8584 17.5619 16.0218C17.5444 16.0684 17.5269 16.1151 17.5036 16.1618C17.4044 16.3718 17.2761 16.5701 17.1069 16.7568C16.8211 17.0718 16.5061 17.2993 16.1503 17.4451C16.1444 17.4451 16.1386 17.4509 16.1328 17.4509C15.7886 17.5909 15.4153 17.6668 15.0128 17.6668C14.4178 17.6668 13.7819 17.5268 13.1111 17.2409C12.4403 16.9551 11.7694 16.5701 11.1044 16.0859C10.8769 15.9168 10.6494 15.7476 10.4336 15.5668L12.3411 13.6593C12.5044 13.7818 12.6503 13.8751 12.7728 13.9393C12.8019 13.9509 12.8369 13.9684 12.8778 13.9859C12.9244 14.0034 12.9711 14.0093 13.0236 14.0093C13.1228 14.0093 13.1986 13.9743 13.2628 13.9101L13.7061 13.4726C13.8519 13.3268 13.9919 13.2159 14.1261 13.1459C14.2603 13.0643 14.3944 13.0234 14.5403 13.0234C14.6511 13.0234 14.7678 13.0468 14.8961 13.0993C15.0244 13.1518 15.1586 13.2276 15.3044 13.3268L17.2353 14.6976C17.3869 14.8026 17.4919 14.9251 17.5561 15.0709C17.6144 15.2168 17.6494 15.3626 17.6494 15.5259Z" fill="black"/>
</svg>